<?xml version="1.0" standalone="no"?>
<!DOCTYPE svg PUBLIC "-//W3C//DTD SVG 20010904//EN"
 "http://www.w3.org/TR/2001/REC-SVG-20010904/DTD/svg10.dtd">
<svg version="1.0" xmlns="http://www.w3.org/2000/svg"
 width="2000.000000pt" height="2000.000000pt" viewBox="0 0 2000.000000 2000.000000"
 preserveAspectRatio="xMidYMid meet">
<metadata>
Created by potrace 1.14, written by Peter Selinger 2001-2017
</metadata>
<g transform="translate(0.000000,2000.000000) scale(0.100000,-0.100000)"
fill="#000000" stroke="none">
<path d="M6994 19128 c-4 -7 -3 -8 4 -4 44 27 45 -321 3 -419 -27 -61 -111
-147 -175 -178 -61 -30 -86 -58 -79 -88 3 -11 35 -39 72 -63 36 -24 86 -63
109 -87 69 -69 135 -225 155 -365 6 -42 24 -74 42 -75 23 -2 29 -4 40 -11 6
-3 23 4 39 17 25 20 31 36 47 121 37 198 86 268 240 342 93 44 125 74 124 114
-2 36 -21 58 -110 122 -198 144 -266 246 -295 443 -11 73 -34 132 -47 119 -3
-3 -11 1 -17 9 -10 13 -16 13 -48 -4 -36 -20 -37 -20 -61 -1 -29 23 -33 24
-43 8z"/>
<path d="M10296 18742 c-4 -4 -53 -8 -109 -9 -56 -2 -109 -3 -117 -3 -8 -1
-30 1 -47 3 -18 3 -33 1 -33 -2 0 -4 -16 -6 -35 -5 -19 2 -37 -1 -41 -7 -4 -6
-12 -5 -22 3 -10 9 -13 9 -9 1 5 -7 1 -12 -10 -12 -43 1 -159 -14 -168 -21 -5
-4 -18 -6 -27 -5 -10 2 -20 -1 -24 -6 -3 -5 -10 -7 -15 -4 -5 4 -9 2 -9 -2 0
-5 -8 -9 -17 -10 -36 -3 -57 -10 -61 -21 -2 -7 -10 -12 -18 -12 -8 0 -14 -4
-14 -8 0 -4 -16 -14 -35 -21 -19 -7 -35 -17 -35 -23 0 -13 -49 -60 -65 -62
-19 -3 -93 -81 -97 -102 -2 -10 -7 -17 -10 -14 -7 5 -33 -25 -38 -45 -2 -5 -9
-15 -17 -20 -8 -6 -14 -22 -15 -35 -1 -14 -5 -30 -10 -37 -15 -19 -27 -73 -17
-73 5 0 9 -7 9 -15 0 -8 -6 -15 -12 -15 -10 0 -10 -2 0 -8 12 -8 11 -66 -2
-79 -3 -4 -6 -2 -6 3 0 5 -24 10 -52 10 -47 1 -143 11 -143 14 0 1 -8 3 -17 5
-10 2 -18 0 -18 -5 0 -4 -11 -6 -25 -5 -14 2 -25 -1 -25 -7 0 -7 -4 -7 -13 0
-21 18 -234 0 -352 -29 -61 -15 -88 -20 -117 -21 -16 -1 -28 -5 -28 -8 0 -4
-14 -7 -31 -8 -17 0 -40 -7 -52 -15 -12 -7 -34 -13 -49 -12 -16 1 -28 -2 -28
-7 0 -4 -6 -8 -14 -8 -7 0 -33 -11 -57 -23 -24 -13 -50 -22 -57 -19 -7 2 -35
-8 -62 -22 -28 -14 -50 -23 -50 -20 0 4 -7 1 -15 -6 -8 -7 -15 -10 -15 -7 0 6
-106 -55 -135 -79 -11 -9 -30 -20 -43 -25 -26 -10 -95 -60 -100 -71 -2 -5 -8
-8 -12 -8 -23 0 -155 -102 -145 -112 3 -2 -11 -10 -30 -17 -19 -7 -35 -19 -35
-27 0 -8 -6 -14 -12 -14 -7 0 -27 -13 -44 -28 -62 -54 -117 -97 -124 -95 -4 1
-21 -11 -39 -28 -18 -16 -48 -36 -66 -43 -18 -8 -42 -23 -53 -34 -10 -10 -31
-22 -46 -26 -15 -4 -24 -11 -21 -16 3 -6 0 -10 -8 -10 -7 0 -24 -10 -37 -22
-14 -13 -28 -22 -32 -21 -5 2 -8 -2 -8 -7 0 -6 -7 -10 -15 -10 -9 0 -18 -7
-21 -15 -4 -8 -9 -13 -14 -10 -7 4 -45 -26 -51 -42 -2 -4 -19 -17 -38 -27 -19
-10 -31 -15 -28 -9 10 16 -28 40 -64 41 -70 0 -79 2 -79 17 0 8 -5 15 -11 15
-6 0 -9 6 -6 13 2 6 0 20 -5 31 -7 13 -6 21 3 27 11 7 11 9 -1 9 -11 0 -15 12
-15 47 -1 27 -6 48 -13 51 -7 2 -12 14 -12 26 0 13 -3 26 -7 29 -3 4 -8 17 -9
30 -3 30 -8 49 -20 72 -6 11 -16 40 -24 65 -18 62 -50 130 -61 130 -5 0 -8 3
-7 8 4 12 -22 52 -33 52 -10 0 -52 37 -127 111 -26 26 -60 54 -77 62 -16 9
-41 26 -55 39 -14 13 -41 34 -60 48 -19 13 -38 29 -42 35 -4 5 -8 7 -8 3 0 -4
-11 4 -26 17 -14 13 -55 35 -92 50 -37 15 -72 31 -79 36 -15 13 -64 0 -83 -21
-8 -9 -23 -19 -33 -23 -10 -4 -16 -11 -12 -16 3 -6 0 -13 -7 -18 -22 -14 -149
-165 -151 -180 -2 -15 -40 -52 -48 -47 -4 2 -10 0 -14 -6 -3 -5 -15 -10 -25
-10 -10 0 -23 -7 -28 -16 -5 -9 -12 -15 -15 -15 -20 3 -27 0 -27 -10 0 -6 -11
-20 -25 -31 -14 -11 -23 -23 -20 -28 3 -4 -2 -10 -10 -14 -8 -3 -15 -10 -15
-17 0 -6 -9 -22 -20 -36 -11 -14 -18 -29 -15 -33 3 -4 -2 -13 -10 -20 -8 -7
-15 -18 -15 -25 0 -7 -7 -18 -15 -25 -9 -7 -15 -8 -15 -2 0 13 -111 13 -127 0
-7 -6 -10 -14 -7 -19 3 -5 -2 -9 -10 -9 -9 0 -16 -7 -16 -15 0 -8 -4 -15 -10
-15 -5 0 -7 -7 -4 -15 4 -8 2 -21 -4 -28 -5 -6 -15 -30 -22 -52 -7 -22 -15
-44 -19 -50 -3 -5 -6 -14 -7 -20 -3 -16 -13 -57 -24 -105 -26 -101 -31 -189
-14 -224 19 -39 18 -42 -15 -55 -29 -13 -88 -78 -84 -93 2 -4 -1 -8 -6 -8 -5
0 -15 -16 -22 -35 -7 -19 -17 -35 -23 -35 -5 0 -6 -3 -3 -7 4 -3 2 -12 -5 -20
-6 -7 -8 -16 -5 -20 4 -3 1 -13 -5 -20 -7 -8 -11 -30 -10 -48 1 -18 -3 -39
-10 -47 -14 -14 -18 -31 -21 -90 -1 -20 -5 -40 -9 -44 -4 -3 -3 -16 3 -27 8
-14 8 -18 0 -13 -6 4 -11 2 -11 -3 0 -6 4 -11 8 -11 4 0 8 -9 9 -20 1 -11 -2
-20 -7 -20 -5 0 -5 -12 -1 -27 5 -17 3 -42 -4 -62 -13 -40 -8 -94 9 -84 8 5 8
3 0 -8 -12 -15 -11 -99 1 -159 4 -19 8 -50 9 -67 0 -18 3 -33 6 -33 3 0 6 -8
7 -17 1 -10 6 -38 11 -63 6 -35 8 -186 3 -255 -1 -10 -51 -14 -51 -4 0 3 -12
5 -27 4 -35 -2 -93 15 -93 27 0 5 -4 6 -10 3 -5 -3 -10 -2 -10 4 0 6 -16 13
-35 17 -19 3 -35 10 -35 15 0 5 -6 9 -14 9 -8 0 -16 4 -18 10 -1 5 -18 10 -35
12 -18 1 -33 6 -33 10 0 11 -56 38 -64 31 -3 -4 -6 -1 -6 6 0 7 -4 10 -9 6 -5
-3 -21 6 -35 20 -14 14 -30 25 -36 25 -5 0 -10 4 -10 8 0 5 -12 15 -27 22 -16
8 -38 23 -50 34 -13 11 -23 16 -23 13 0 -4 -9 1 -20 11 -11 9 -29 25 -40 35
-11 9 -20 15 -20 12 0 -3 -17 12 -38 34 -36 38 -40 39 -59 26 -18 -13 -20 -22
-16 -62 3 -27 6 -67 7 -90 0 -24 4 -43 8 -43 14 0 13 -35 -1 -46 -12 -9 -11
-14 5 -31 21 -22 51 -81 125 -248 12 -27 22 -71 23 -97 1 -45 0 -47 -24 -41
-14 3 -34 12 -45 19 -11 8 -30 14 -43 14 -12 0 -25 7 -28 15 -4 8 -17 15 -30
15 -14 0 -36 8 -51 17 -14 10 -32 19 -40 20 -26 6 -48 12 -50 13 -2 2 -6 3
-10 5 -5 1 -16 5 -25 9 -9 4 -21 5 -27 2 -5 -4 -12 -2 -16 4 -3 5 -17 10 -31
10 -13 0 -24 5 -24 10 0 6 -3 9 -7 9 -5 -1 -10 0 -13 1 -21 8 -121 29 -141 30
-20 0 -45 -55 -40 -88 1 -13 -2 -28 -7 -35 -16 -20 -35 -90 -34 -124 1 -18 -3
-35 -8 -38 -7 -4 -7 -13 0 -24 5 -10 7 -21 3 -25 -3 -3 -7 -18 -8 -32 -1 -30
4 -29 -130 -38 -104 -7 -116 -9 -132 -19 -7 -5 -13 -5 -13 -1 0 4 -11 -3 -24
-15 -15 -14 -26 -19 -31 -12 -8 14 -27 14 -62 0 -15 -7 -35 -12 -43 -13 -27
-2 -130 -39 -130 -47 0 -4 -13 -10 -29 -14 -48 -10 -59 -35 -35 -78 13 -22 18
-21 64 8 l34 22 36 -21 c19 -11 37 -24 38 -28 2 -4 8 -8 14 -8 6 0 23 -11 40
-25 16 -14 35 -25 41 -25 7 0 24 -11 39 -24 14 -14 42 -33 61 -44 l35 -19 -31
-19 c-18 -10 -35 -19 -39 -20 -5 -1 -11 -3 -15 -4 -5 -1 -11 -2 -15 -1 -5 0
-8 -4 -8 -10 0 -5 -4 -8 -9 -5 -13 8 -44 -31 -38 -47 3 -8 20 -17 39 -21 65
-12 73 -14 108 -28 53 -22 74 -31 80 -32 17 -4 110 -61 110 -68 0 -4 6 -8 13
-8 6 0 26 -14 44 -30 18 -17 36 -30 40 -30 9 0 43 -37 43 -46 0 -4 11 -17 25
-30 14 -13 25 -26 25 -29 0 -3 8 -13 18 -23 28 -31 46 -55 59 -82 13 -26 25
-45 57 -93 45 -69 108 -214 111 -255 2 -40 8 -50 64 -101 33 -31 61 -62 61
-68 0 -16 34 -34 57 -30 44 8 109 32 115 43 4 6 19 10 33 9 14 -2 27 1 30 6 9
13 75 42 82 36 7 -7 85 31 95 47 4 6 8 7 8 2 0 -5 15 7 34 27 18 20 36 34 39
31 3 -3 8 4 12 15 3 11 15 23 26 26 10 4 17 10 14 14 -4 8 44 36 57 33 4 -1
12 7 18 18 6 11 15 18 21 15 5 -4 9 1 9 9 0 9 3 15 8 15 19 -3 33 2 27 11 -3
6 1 11 9 11 34 3 38 5 49 20 15 19 77 50 87 44 4 -3 11 2 14 11 4 9 9 14 12
12 3 -3 26 2 52 12 26 9 52 16 58 13 11 -4 40 23 45 42 2 6 9 9 16 7 8 -2 21
4 29 13 9 9 29 19 45 22 16 3 42 18 59 34 16 16 34 29 39 29 15 0 18 -31 7
-71 -7 -28 -17 -39 -43 -48 -18 -7 -31 -17 -27 -22 3 -5 10 -6 16 -3 7 4 8 2
4 -4 -9 -15 -12 -15 -30 4 -9 8 -16 11 -16 4 0 -6 11 -15 25 -22 13 -6 22 -15
19 -19 -8 -13 10 -11 24 3 9 9 12 8 12 -5 0 -9 -5 -17 -10 -17 -7 0 -7 -6 -1
-19 8 -14 7 -22 -5 -32 -12 -10 -15 -24 -11 -53 4 -29 1 -46 -10 -58 -10 -11
-12 -18 -5 -18 7 0 12 -7 12 -15 0 -8 6 -15 13 -15 8 0 14 -6 14 -14 0 -8 -6
-12 -14 -9 -12 5 -18 -8 -14 -29 0 -5 -3 -8 -8 -8 -5 0 -8 -8 -6 -17 1 -10 -2
-23 -7 -30 -6 -7 -6 -19 1 -31 6 -11 7 -22 4 -26 -4 -4 -8 -12 -9 -19 -2 -7
-5 -23 -8 -37 -3 -14 0 -27 7 -32 9 -6 9 -8 -1 -8 -9 0 -8 -7 4 -25 11 -17 12
-25 5 -25 -7 0 -11 -8 -10 -17 1 -10 -1 -35 -5 -55 -5 -21 -5 -46 -1 -55 5
-10 9 -58 11 -108 8 -223 19 -348 34 -374 4 -9 6 -35 4 -59 -2 -23 0 -42 6
-42 5 0 8 -17 6 -37 -1 -21 6 -60 16 -88 10 -27 19 -62 20 -77 1 -16 5 -28 10
-28 5 0 7 -4 4 -9 -5 -8 34 -160 51 -201 3 -8 7 -18 7 -22 1 -4 7 -13 14 -19
6 -7 12 -23 12 -35 0 -13 5 -26 10 -29 6 -4 8 -10 5 -15 -3 -5 0 -12 8 -17 7
-4 19 -27 27 -50 7 -24 16 -43 20 -43 3 0 12 -16 20 -35 8 -19 16 -35 19 -35
3 0 17 -20 30 -45 13 -25 28 -45 32 -45 15 0 10 18 -7 24 -8 3 -12 10 -9 16 3
5 1 10 -5 10 -6 0 -9 4 -6 8 3 5 -1 21 -9 35 -8 15 -15 31 -17 35 -2 4 -7 6
-12 4 -5 -2 -4 4 3 12 8 9 10 24 5 38 -4 13 -9 32 -10 43 -2 11 -5 29 -8 40
-2 11 -7 46 -11 78 -4 31 -10 57 -14 57 -3 0 -6 33 -6 73 0 40 -6 84 -13 100
-8 15 -11 35 -7 45 11 24 12 62 3 62 -10 0 -11 44 -1 54 9 9 11 106 2 106 -8
0 -3 145 6 160 3 5 1 11 -4 11 -6 1 -15 3 -21 4 -5 1 -14 3 -20 4 -13 1 -13
31 0 31 5 0 17 9 27 20 29 31 18 120 -14 120 -10 0 -6 7 11 21 22 18 26 28 23
55 -3 19 -2 34 2 34 4 0 7 19 8 43 3 69 10 138 22 201 6 32 8 62 5 67 -3 5 0
19 7 31 7 12 13 43 14 69 1 25 5 51 9 57 4 7 4 17 1 22 -3 6 -2 10 4 10 6 0 8
6 5 14 -3 8 0 24 6 36 13 25 20 56 23 112 2 20 6 40 10 44 4 4 7 16 7 26 0 10
6 21 14 24 8 3 11 15 8 30 -2 14 0 24 7 24 7 0 10 -11 8 -27 -2 -16 0 -41 4
-57 5 -17 5 -32 1 -35 -15 -12 -31 -50 -23 -55 5 -3 7 -17 6 -31 -2 -14 2 -25
8 -25 9 0 8 -3 0 -8 -15 -9 -24 -70 -13 -77 5 -3 6 -14 3 -25 -4 -13 1 -26 13
-35 16 -12 17 -16 5 -24 -16 -10 -26 -151 -12 -151 5 0 8 -33 9 -72 0 -40 3
-87 7 -105 6 -28 10 -31 26 -22 15 7 17 6 13 -6 -4 -8 -10 -15 -14 -15 -10 0
-11 -80 -2 -95 7 -10 12 -57 12 -94 0 -14 4 -27 10 -31 5 -3 12 -17 14 -30 2
-14 5 -25 6 -25 1 0 3 -13 4 -30 1 -16 8 -40 14 -52 7 -12 12 -31 12 -42 0
-11 5 -32 11 -48 7 -15 12 -39 12 -53 0 -14 3 -27 6 -30 13 -11 40 -77 46
-112 3 -21 7 -41 7 -45 1 -5 10 -17 20 -27 10 -11 18 -24 18 -28 0 -5 4 -7 9
-4 5 4 8 -2 7 -11 -2 -10 2 -21 8 -25 8 -6 6 -11 -4 -18 -11 -7 -11 -10 -2
-10 7 0 11 -4 8 -8 -3 -5 2 -18 12 -28 9 -10 17 -25 18 -31 2 -29 4 -34 13
-29 8 5 26 -40 23 -56 -1 -5 3 -8 10 -8 6 0 8 -3 5 -6 -6 -7 22 -52 55 -88 10
-11 18 -26 18 -34 0 -25 70 -112 89 -112 6 0 11 -6 11 -14 0 -22 52 -96 67
-96 7 0 13 -5 13 -10 0 -16 52 -70 61 -64 5 3 9 1 9 -4 0 -12 43 -62 54 -62
12 0 75 -57 70 -63 -3 -3 4 -8 15 -12 12 -3 21 -11 21 -16 0 -5 6 -9 14 -9 7
0 21 -11 30 -25 17 -26 73 -61 92 -57 14 3 24 -19 20 -44 -2 -11 1 -22 7 -26
6 -4 2 -20 -12 -44 -12 -20 -21 -46 -20 -58 1 -12 -3 -32 -8 -46 -6 -14 -8
-29 -6 -34 3 -4 0 -12 -7 -16 -7 -4 -14 -21 -16 -36 -1 -16 -7 -30 -12 -32 -5
-1 -8 -16 -6 -32 3 -24 -2 -32 -24 -44 -15 -8 -48 -39 -72 -70 -25 -31 -50
-56 -56 -56 -5 0 -19 -8 -30 -18 -21 -20 -84 -45 -92 -37 -3 3 -13 -2 -22 -10
-11 -10 -41 -16 -91 -17 -41 -1 -64 -4 -52 -6 15 -2 20 -8 16 -19 -4 -11 -2
-14 5 -9 7 4 12 2 12 -4 0 -6 15 -10 33 -9 17 0 44 -2 60 -5 15 -4 27 -3 27 1
0 5 33 8 73 8 74 -1 147 12 147 25 0 4 18 10 41 13 22 3 48 12 58 21 10 9 20
14 22 11 3 -2 22 10 41 28 66 58 68 59 68 43 0 -8 -10 -23 -23 -33 -12 -10
-29 -33 -36 -50 -7 -18 -20 -33 -28 -33 -8 0 -19 -13 -24 -30 -6 -16 -16 -30
-22 -30 -7 0 -5 -5 3 -10 12 -8 12 -10 1 -10 -8 0 -11 -3 -8 -7 4 -3 -7 -14
-23 -24 -17 -11 -30 -25 -30 -32 0 -15 -36 -48 -44 -40 -3 3 -11 -6 -17 -21
-7 -14 -16 -26 -21 -26 -4 0 -26 -18 -47 -39 -22 -22 -42 -37 -45 -33 -3 3 -6
0 -6 -6 0 -7 -7 -12 -15 -12 -8 0 -15 -7 -15 -16 0 -10 -6 -14 -15 -10 -8 3
-15 2 -15 -2 0 -4 -10 -12 -23 -18 -12 -6 -46 -24 -75 -39 -29 -16 -67 -29
-85 -31 -18 -1 -44 -5 -59 -7 -16 -3 -28 -2 -28 3 0 4 -15 8 -33 7 -32 -1 -62
17 -96 57 -9 10 -24 27 -34 38 -9 10 -15 18 -12 18 14 0 -35 41 -85 70 -30 18
-60 39 -66 47 -7 8 -21 15 -32 18 -11 2 -29 7 -39 12 -10 5 -30 8 -45 7 -16 0
-28 4 -28 9 0 6 -3 7 -6 4 -4 -3 -15 -2 -26 4 -14 7 -23 7 -34 -2 -9 -8 -14
-8 -14 -1 0 6 -7 9 -15 6 -8 -4 -15 -1 -15 5 0 12 -55 12 -80 0 -29 -14 -80
-18 -80 -6 0 9 -2 9 -8 0 -4 -7 -22 -13 -40 -15 -18 -1 -32 -5 -32 -9 0 -6
-55 -20 -74 -18 -5 0 -17 -12 -27 -28 -10 -15 -19 -23 -19 -18 0 6 -5 3 -10
-5 -5 -8 -14 -16 -20 -16 -5 -1 -15 -2 -20 -3 -6 0 -26 -16 -45 -35 -18 -19
-36 -31 -39 -28 -3 3 -6 0 -6 -6 0 -19 4 -27 13 -24 4 1 7 -7 7 -18 0 -11 -4
-20 -10 -20 -5 0 -10 5 -10 10 0 15 -46 12 -60 -5 -6 -8 -9 -19 -5 -25 3 -5 2
-10 -3 -10 -16 0 -49 -72 -48 -103 1 -18 -3 -26 -10 -23 -17 7 -28 -26 -12
-36 7 -4 9 -8 3 -8 -5 0 -2 -6 7 -13 14 -11 16 -22 9 -56 -3 -12 -31 25 -29
38 1 9 -1 17 -5 19 -19 6 -27 0 -27 -22 0 -13 -7 -29 -15 -36 -13 -11 -13 -14
2 -29 23 -20 23 -55 1 -59 -13 -3 -16 -13 -14 -48 1 -24 0 -44 -4 -44 -4 0 -6
-28 -5 -62 3 -79 3 -80 13 -74 4 2 9 -4 9 -15 1 -10 -3 -19 -8 -19 -5 0 -7
-12 -3 -27 3 -16 6 -34 6 -40 1 -7 5 -13 10 -13 5 0 7 -4 3 -9 -3 -5 -1 -12 4
-16 6 -3 8 -12 5 -19 -3 -7 2 -21 11 -30 9 -9 13 -16 8 -16 -4 0 -3 -4 2 -8 6
-4 17 -20 25 -37 23 -48 61 -96 71 -90 5 4 9 1 9 -6 0 -7 3 -9 7 -6 4 4 12 -5
19 -21 13 -32 180 -142 214 -142 11 0 20 -5 20 -11 0 -5 4 -8 9 -5 5 3 14 -1
21 -9 7 -8 27 -17 46 -21 19 -3 34 -9 34 -13 0 -4 9 -8 20 -9 43 -4 50 -6 50
-13 0 -4 10 -5 22 -1 16 4 19 2 13 -8 -6 -10 -4 -11 6 -4 21 13 40 14 32 1 -4
-6 0 -8 10 -4 9 3 23 -1 32 -9 18 -18 21 -4 2 15 -9 11 -7 10 11 0 17 -11 26
-11 41 -2 12 8 22 8 28 2 7 -7 16 -5 27 6 9 9 23 14 31 11 9 -3 15 1 15 10 0
8 6 14 13 13 31 -4 48 3 72 28 14 15 25 24 25 20 0 -19 40 32 61 78 12 28 29
58 37 68 8 9 12 17 7 17 -4 0 -2 7 6 16 9 10 13 51 13 132 0 107 -2 121 -26
164 -14 26 -28 45 -32 41 -3 -3 -6 1 -6 10 0 10 -5 17 -11 17 -5 0 -8 4 -4 9
5 8 -27 33 -45 36 -3 0 -15 6 -27 13 -20 11 -21 10 -17 -10 11 -54 16 -168 9
-185 -5 -10 -7 -21 -7 -25 1 -5 -3 -8 -9 -8 -5 0 -7 -4 -4 -10 3 -5 2 -10 -4
-10 -6 0 -8 -7 -5 -15 3 -8 -6 -25 -20 -40 -14 -14 -23 -25 -20 -25 3 0 -7
-13 -23 -29 -15 -16 -31 -27 -36 -24 -4 2 -10 -3 -13 -11 -3 -9 -12 -16 -20
-16 -8 0 -14 -4 -14 -10 0 -5 -7 -10 -15 -10 -8 0 -15 -5 -15 -10 0 -6 -3 -9
-7 -8 -11 2 -65 -12 -84 -22 -8 -4 -23 -4 -32 2 -10 5 -22 6 -27 3 -6 -3 -10
-2 -10 3 0 5 -12 10 -26 10 -15 0 -31 7 -36 16 -5 9 -14 14 -19 10 -6 -3 -18
1 -27 9 -9 7 -25 17 -34 20 -10 4 -18 13 -18 21 0 8 -12 20 -27 27 -16 7 -41
28 -57 46 -26 31 -29 42 -30 109 -1 41 -5 74 -9 74 -5 0 -5 6 0 13 8 14 12 29
18 72 2 17 8 44 13 60 5 17 8 38 6 48 -1 9 2 17 6 17 8 0 23 33 25 55 2 26 17
75 23 75 7 0 55 89 66 123 3 10 11 17 18 15 7 -3 22 9 33 25 11 17 29 35 39
41 28 16 38 22 70 51 16 13 32 22 37 19 5 -3 9 -1 9 4 0 22 136 18 173 -5 6
-4 19 -8 27 -9 32 -2 71 -24 64 -36 -4 -7 -3 -10 1 -5 5 4 16 0 25 -8 10 -9
33 -16 53 -17 20 -1 34 -5 31 -9 -2 -4 0 -10 6 -14 6 -4 8 -10 5 -15 -5 -8 26
-23 48 -25 5 0 14 -8 21 -17 7 -10 18 -18 25 -18 6 0 11 -5 11 -11 0 -6 9 -9
19 -6 11 3 29 -5 45 -20 14 -13 26 -20 26 -16 0 4 7 -1 15 -11 8 -11 17 -17
21 -14 3 4 30 -5 60 -19 38 -17 58 -22 71 -15 11 7 21 6 31 -4 7 -8 24 -12 38
-10 13 3 24 1 24 -3 0 -4 11 -7 25 -7 14 0 25 3 25 7 0 4 8 5 19 2 10 -2 24 2
32 9 8 8 24 14 37 15 19 2 21 -1 12 -18 -6 -10 -15 -19 -20 -19 -6 0 -10 -9
-10 -20 0 -10 -6 -23 -14 -27 -24 -14 -46 -69 -33 -82 8 -8 8 -11 -1 -11 -6 0
-21 -20 -32 -44 -11 -24 -31 -53 -45 -65 -14 -11 -26 -22 -26 -25 1 -3 -15
-23 -34 -43 -77 -85 -94 -106 -109 -136 -9 -18 -16 -28 -16 -23 0 5 -9 -2 -21
-15 -76 -89 -146 -159 -159 -159 -13 0 -13 -1 0 -10 13 -9 13 -10 0 -10 -9 0
-22 -10 -30 -22 -8 -12 -40 -47 -70 -77 -30 -30 -48 -52 -39 -49 9 4 16 1 16
-8 0 -8 -7 -14 -15 -14 -9 0 -13 -3 -9 -6 3 -4 -9 -23 -28 -43 -19 -20 -35
-41 -35 -48 0 -7 -7 -16 -15 -21 -9 -4 -17 -17 -17 -29 -1 -11 -8 -20 -15 -20
-6 0 -10 4 -7 9 3 4 -10 0 -29 -9 -19 -10 -33 -21 -31 -25 2 -4 0 -9 -6 -13
-6 -4 -8 -11 -4 -16 3 -6 -4 -13 -16 -16 -16 -4 -18 -8 -8 -14 19 -12 30 -11
22 3 -4 6 -3 8 4 5 12 -8 11 -25 -3 -47 -7 -12 -6 -13 7 -3 22 19 28 6 12 -26
-8 -15 -15 -41 -16 -57 -1 -16 -6 -35 -11 -41 -5 -7 -6 -13 -2 -13 4 0 -1 -12
-10 -27 -15 -23 -21 -44 -27 -100 -1 -7 -6 -13 -12 -13 -6 0 -4 -5 4 -10 9 -6
11 -13 5 -17 -12 -10 -16 -43 -5 -43 11 0 7 -71 -3 -88 -5 -8 -3 -20 5 -29 8
-10 8 -14 1 -10 -15 10 -28 -12 -15 -25 7 -7 7 -18 -1 -35 -8 -18 -8 -29 0
-42 7 -11 8 -23 1 -34 -5 -9 -5 -17 0 -17 5 0 9 -7 9 -15 0 -8 -4 -15 -8 -15
-13 0 -1 -39 16 -57 12 -11 15 -26 10 -53 l-6 -36 81 -44 c45 -24 85 -51 90
-61 6 -10 19 -15 34 -14 14 2 27 -3 30 -12 4 -9 18 -14 38 -13 18 1 35 1 38 0
23 -9 78 -6 90 4 8 7 22 12 30 11 8 0 17 3 20 7 3 4 17 9 30 12 14 3 36 8 50
11 14 4 36 8 50 10 14 2 36 6 50 9 14 3 40 9 58 12 17 3 32 10 32 14 0 5 9 6
20 3 11 -3 20 -1 20 5 0 6 8 9 18 8 9 -2 27 3 39 11 12 8 39 16 61 17 22 2 50
10 63 20 13 9 29 16 36 16 6 0 24 5 40 12 15 6 32 10 37 9 5 -1 16 1 25 5 9 4
19 8 24 9 4 2 8 3 10 5 2 2 18 5 59 13 14 3 35 10 45 15 10 6 23 11 28 12 6 1
20 6 33 11 13 5 32 9 43 9 10 0 19 5 19 11 0 5 8 9 18 8 9 -1 30 3 45 10 16 6
32 9 37 6 5 -3 10 -1 12 5 1 5 15 11 31 12 15 1 27 8 27 14 0 14 21 24 46 20
16 -2 94 63 94 79 0 8 32 41 37 38 6 -4 38 11 45 21 3 5 16 11 28 13 12 2 33
12 47 23 14 11 29 17 34 14 5 -3 9 0 9 6 0 5 20 20 45 32 25 12 47 30 51 40 3
10 10 16 15 13 5 -4 9 -2 9 2 0 5 18 17 40 27 22 10 40 22 40 27 0 5 8 9 18 9
10 0 33 13 52 30 19 16 41 29 48 30 6 0 12 4 12 8 0 4 20 21 45 36 25 16 45
33 45 37 0 5 3 8 8 7 16 -6 162 122 162 142 0 4 20 11 44 17 l45 10 5 -36 c3
-20 4 -48 2 -63 -2 -16 1 -29 5 -29 5 -1 14 -3 19 -4 6 -1 14 -3 18 -4 4 0 14
-17 21 -37 7 -20 26 -55 42 -79 16 -23 30 -51 32 -61 2 -11 12 -37 22 -59 9
-22 18 -44 19 -50 1 -5 13 -35 27 -65 14 -30 32 -76 39 -102 8 -27 17 -48 20
-48 3 0 6 -8 7 -17 1 -19 6 -38 16 -63 20 -54 34 -109 29 -114 -3 -3 0 -6 6
-6 7 0 12 -9 12 -20 0 -11 4 -28 9 -38 14 -25 24 -56 23 -64 -1 -5 3 -8 10 -8
6 0 9 -3 5 -6 -3 -4 3 -29 15 -58 11 -28 20 -59 20 -68 -1 -10 3 -18 7 -18 10
0 31 -92 31 -134 0 -18 -11 -54 -25 -80 -29 -54 -28 -73 3 -106 12 -13 22 -27
22 -31 0 -4 17 -10 38 -14 46 -7 53 -12 75 -52 l17 -32 -30 -17 c-16 -10 -30
-24 -30 -32 0 -7 -4 -10 -10 -7 -5 3 -10 -3 -10 -14 0 -12 -6 -21 -12 -21 -8
-1 -6 -6 4 -14 10 -7 18 -18 18 -25 0 -6 4 -11 9 -11 11 0 8 -18 -11 -70 -17
-46 -28 -61 -38 -55 -4 3 -24 -10 -43 -29 -46 -44 -104 -67 -118 -46 -8 13
-11 12 -21 -5 -7 -11 -13 -30 -14 -42 0 -12 -8 -29 -17 -38 -18 -17 -24 -50
-8 -41 14 9 41 -4 41 -19 0 -8 -8 -15 -17 -17 -15 -3 -15 -5 2 -21 18 -18 18
-19 -6 -15 -19 2 -23 -1 -21 -15 4 -26 -18 -88 -29 -81 -5 3 -9 2 -8 -3 4 -22
-2 -40 -13 -40 -7 0 -33 -6 -58 -12 -25 -7 -54 -13 -65 -15 -11 -2 -20 -4 -20
-5 0 -3 -23 -8 -65 -16 -14 -3 -52 -12 -85 -21 -33 -8 -71 -17 -85 -19 -14 -2
-26 -4 -27 -5 -4 -3 -10 -5 -58 -15 -51 -11 -47 -10 -67 -19 -9 -4 -22 -8 -30
-10 -7 -1 -17 -4 -23 -7 -5 -4 -27 -9 -47 -13 -21 -4 -38 -11 -38 -16 0 -4 -8
-7 -17 -5 -10 1 -24 -2 -30 -8 -7 -5 -13 -7 -13 -3 0 5 -17 0 -95 -30 -11 -4
-24 -6 -29 -5 -4 1 -14 -4 -22 -10 -8 -6 -14 -9 -14 -6 0 3 -31 -5 -69 -18
-38 -13 -72 -21 -75 -17 -3 3 -6 -1 -6 -8 0 -7 -3 -11 -6 -7 -7 7 -52 -8 -132
-44 -35 -16 -68 -29 -73 -29 -5 0 -9 -5 -9 -10 0 -6 -3 -9 -7 -8 -10 2 -87
-35 -91 -44 -2 -4 -10 -4 -18 -1 -8 3 -14 1 -14 -5 0 -5 -28 -20 -62 -32 -79
-29 -87 -35 -83 -65 1 -14 -2 -25 -7 -25 -5 0 -4 -8 1 -19 6 -10 8 -21 4 -24
-12 -13 -14 -137 -2 -137 8 0 8 -4 -1 -15 -7 -8 -9 -15 -4 -15 5 0 10 -19 10
-43 3 -87 17 -159 51 -257 3 -8 6 -32 6 -52 1 -21 5 -38 10 -38 5 0 7 -6 4
-14 -3 -7 -1 -18 5 -24 14 -14 0 -35 -18 -28 -8 3 -14 1 -14 -4 0 -6 -7 -10
-15 -10 -8 0 -15 -5 -15 -11 0 -5 -4 -7 -10 -4 -5 3 -10 1 -10 -4 0 -6 -4 -10
-8 -9 -12 4 -102 -44 -102 -54 0 -4 -7 -8 -15 -8 -16 0 -154 -69 -173 -87 -6
-6 -21 -15 -32 -18 -11 -3 -20 -11 -20 -16 0 -6 -4 -7 -10 -4 -5 3 -10 2 -10
-4 0 -6 -7 -8 -15 -5 -8 4 -15 1 -15 -4 0 -6 -10 -14 -22 -18 -12 -3 -28 -13
-36 -20 -7 -8 -18 -12 -23 -9 -5 4 -9 3 -9 -2 0 -4 -13 -14 -30 -21 -16 -8
-30 -20 -30 -28 0 -9 -4 -13 -9 -9 -16 9 -163 -65 -198 -100 -13 -14 -21 -16
-39 -14 -3 0 -13 -8 -22 -18 -9 -11 -36 -25 -59 -31 -24 -7 -43 -16 -43 -21 0
-4 -16 -15 -35 -24 -19 -9 -35 -22 -35 -27 0 -6 -5 -8 -10 -5 -6 3 -13 0 -16
-8 -3 -8 -25 -26 -50 -38 -24 -13 -44 -28 -44 -32 0 -5 -4 -6 -9 -3 -5 3 -14
-1 -21 -9 -7 -8 -19 -15 -26 -15 -8 0 -14 -5 -14 -10 0 -6 -8 -14 -17 -17 -10
-4 -29 -18 -42 -32 -25 -27 -27 -28 -62 -30 -11 0 -17 -5 -14 -11 3 -5 -1 -10
-9 -10 -8 0 -20 -8 -25 -18 -6 -9 -11 -13 -11 -9 0 5 -7 2 -15 -5 -23 -20 -37
-32 -75 -57 -19 -13 -45 -34 -57 -45 -37 -35 -52 -46 -63 -46 -5 0 -10 -4 -10
-10 0 -5 -4 -10 -10 -10 -30 0 -240 -215 -240 -246 0 -22 12 -44 21 -39 4 3
13 -5 20 -17 7 -13 36 -47 66 -76 29 -30 53 -58 53 -63 0 -5 11 -14 24 -20 13
-6 30 -23 37 -37 20 -38 61 -73 81 -68 11 2 15 -1 11 -10 -3 -8 5 -25 18 -39
13 -13 29 -29 34 -35 6 -6 43 -42 82 -79 40 -37 70 -71 67 -74 -4 -3 5 -9 20
-13 14 -3 26 -11 26 -16 0 -15 52 -58 62 -52 4 3 10 -7 14 -21 3 -14 9 -24 11
-21 3 3 17 -8 31 -24 15 -17 32 -30 39 -30 6 0 14 -9 18 -19 3 -11 15 -23 26
-26 10 -4 17 -10 14 -14 -2 -4 7 -14 20 -21 39 -21 38 -39 -5 -86 -22 -24 -40
-48 -40 -54 0 -5 -4 -10 -9 -10 -12 0 -68 -56 -82 -81 -5 -11 -14 -17 -20 -14
-5 4 -9 -3 -9 -15 0 -12 -4 -18 -10 -15 -5 3 -10 2 -10 -4 0 -5 -8 -12 -18
-15 -10 -4 -27 -23 -38 -43 -10 -19 -21 -34 -24 -32 -8 5 -50 -35 -50 -48 0
-7 -3 -13 -7 -13 -5 0 -24 -14 -43 -30 -19 -16 -31 -30 -26 -30 5 0 -16 -25
-47 -55 -31 -30 -53 -55 -51 -55 3 0 -22 -30 -55 -67 -34 -37 -61 -74 -61 -81
0 -7 -4 -10 -10 -7 -6 3 -10 0 -10 -7 0 -7 -14 -28 -31 -46 -16 -17 -27 -32
-24 -32 3 0 -5 -10 -18 -23 -13 -12 -31 -38 -40 -57 -10 -19 -28 -47 -42 -62
-14 -15 -25 -32 -25 -38 0 -6 -8 -20 -19 -31 -19 -20 -18 -69 2 -69 6 0 7 -3
4 -7 -4 -3 4 -20 17 -37 13 -18 26 -40 28 -51 2 -11 9 -19 15 -18 6 1 24 -14
39 -34 31 -41 62 -71 130 -128 27 -22 71 -60 97 -85 27 -25 55 -51 62 -57 8
-7 16 -13 20 -13 10 0 35 -27 30 -32 -3 -3 6 -11 20 -18 14 -7 25 -18 25 -24
0 -6 29 -42 65 -81 57 -62 81 -105 57 -105 -4 0 -8 -8 -9 -17 -3 -42 -8 -63
-14 -63 -4 0 -10 -16 -13 -35 -4 -19 -11 -35 -17 -35 -6 0 -7 -5 -3 -11 7 -12
-15 -89 -26 -89 -4 0 -6 -10 -5 -23 1 -12 -2 -33 -7 -46 -5 -13 -11 -47 -14
-75 -3 -28 -8 -54 -11 -58 -2 -5 1 -8 6 -8 13 0 10 -22 -4 -32 -6 -5 -6 -8 2
-8 6 0 10 -9 8 -20 -2 -11 2 -20 8 -20 8 0 8 -3 -1 -9 -11 -7 -11 -9 1 -14 8
-3 18 -18 21 -33 4 -16 19 -40 34 -55 15 -15 36 -38 47 -51 12 -12 42 -41 69
-63 26 -22 55 -48 64 -57 9 -10 20 -18 24 -18 3 0 29 -22 57 -49 28 -27 51
-48 51 -45 0 4 18 -11 84 -68 50 -45 64 -32 69 65 1 15 6 27 10 27 5 0 5 4 2
10 -3 5 -2 10 3 10 6 0 9 19 7 43 -2 23 1 47 7 54 5 7 7 17 3 24 -4 6 -9 27
-11 47 -3 21 -5 42 -6 47 0 6 2 25 6 43 6 25 4 33 -8 38 -9 3 -13 11 -9 18 7
11 9 15 17 54 2 9 -1 25 -5 34 -6 10 -5 19 1 23 15 9 0 35 -22 35 -10 0 -16 5
-13 10 4 6 10 8 15 5 5 -3 11 -1 14 4 4 5 1 13 -5 17 -8 4 -7 9 2 15 11 7 12
12 1 29 -9 16 -10 24 0 39 9 15 9 23 0 33 -9 11 -9 17 0 26 8 8 8 16 -3 28 -9
12 -10 15 -1 10 9 -5 11 -1 8 16 -3 13 -5 23 -6 23 -5 0 -5 67 0 70 7 5 7 56
-1 70 -3 6 -5 36 -4 68 1 35 -3 61 -11 67 -8 7 -9 20 -5 38 4 14 3 48 -2 75
-7 35 -6 55 3 75 7 15 14 36 16 47 8 45 10 55 17 61 4 4 7 26 7 49 0 24 6 48
14 54 8 7 13 20 11 29 -1 9 2 26 7 36 6 10 12 39 14 63 3 24 11 64 20 89 8 24
12 49 9 54 -3 5 -1 11 4 14 5 4 13 31 16 61 4 31 11 57 15 60 5 3 6 14 3 25
-3 12 1 22 11 26 9 3 13 10 10 15 -3 5 -1 9 4 9 9 0 37 50 34 63 -1 4 3 7 10
7 6 0 8 3 5 7 -4 3 5 26 19 50 14 24 23 47 20 52 -3 5 1 12 9 15 8 3 15 9 14
13 -4 22 3 31 27 37 18 5 24 12 20 22 -3 9 -1 12 4 9 6 -3 10 -1 10 5 0 6 5 8
10 5 6 -3 10 0 10 8 0 20 30 77 52 99 10 10 16 23 13 28 -4 6 -1 10 4 10 6 0
11 8 11 19 0 10 7 24 15 31 8 7 15 19 15 27 0 8 8 27 18 41 10 15 27 47 37 72
10 25 25 52 32 61 7 8 13 23 13 32 0 9 5 17 11 17 5 0 8 4 5 9 -3 5 1 22 9 37
8 16 18 44 21 62 3 17 9 32 13 32 3 0 7 10 8 23 3 25 7 45 16 67 3 8 11 35 17
60 16 68 51 160 59 156 4 -3 8 5 8 16 1 11 12 31 23 43 12 13 23 29 24 36 1 8
13 32 27 54 13 22 23 43 21 48 -1 4 2 7 7 7 9 0 27 40 22 49 -2 2 1 7 6 10 13
9 51 65 55 81 2 8 11 23 21 34 9 11 17 25 17 32 0 6 7 15 16 18 8 3 13 10 10
14 -3 5 4 14 14 22 10 8 17 17 14 22 -3 4 0 8 6 8 12 0 41 61 43 91 1 10 12
21 25 24 14 3 29 19 37 39 8 18 21 38 29 45 9 7 13 18 10 23 -3 5 3 12 15 15
12 3 21 9 21 14 0 8 80 119 126 174 28 34 33 40 55 75 9 14 44 53 77 88 33 34
58 62 55 62 -3 0 4 8 15 19 12 10 22 23 22 28 0 6 7 16 15 23 12 10 15 10 15
-3 0 -9 -4 -18 -9 -21 -15 -10 22 -76 46 -82 13 -4 23 -10 23 -14 0 -4 17 -7
37 -6 37 1 38 0 38 -35 1 -44 16 -65 64 -86 41 -18 49 -19 74 -9 9 5 23 4 30
-2 6 -5 19 -8 27 -7 8 1 33 -22 55 -51 22 -30 45 -52 52 -49 6 2 13 0 15 -6 4
-13 132 -24 155 -13 10 4 25 8 33 9 16 0 40 -17 35 -26 -4 -6 42 -42 58 -45
43 -7 68 -13 75 -18 9 -6 111 17 138 32 10 5 31 24 46 40 22 25 32 29 60 26
18 -3 45 -6 61 -7 15 -1 27 -5 27 -9 0 -5 9 -8 20 -8 16 0 20 -7 20 -30 0 -27
13 -46 52 -75 25 -18 76 -27 84 -14 3 6 13 -4 22 -22 10 -18 34 -41 56 -53 41
-21 113 -28 120 -11 3 6 5 0 5 -13 1 -31 19 -62 35 -62 8 0 13 -11 13 -27 0
-34 13 -123 20 -143 4 -8 7 -22 7 -30 1 -8 5 -21 9 -28 5 -7 3 -12 -4 -12 -8
0 -8 -4 -1 -13 6 -6 9 -27 8 -45 -1 -17 1 -32 6 -32 4 0 8 -16 8 -36 0 -19 3
-33 7 -31 5 3 9 -14 9 -36 1 -23 4 -55 7 -72 3 -16 8 -46 11 -65 4 -19 11 -58
17 -87 5 -28 12 -64 13 -80 2 -15 5 -28 6 -28 1 0 3 -9 4 -20 8 -61 17 -119
25 -158 4 -24 7 -51 5 -60 -1 -9 1 -17 4 -17 4 0 7 -10 8 -22 2 -55 9 -98 14
-98 3 0 6 -10 7 -22 3 -33 24 -150 31 -168 3 -8 6 -19 7 -25 9 -62 30 -165 34
-165 4 0 7 -12 8 -27 4 -70 8 -103 14 -103 3 0 11 -35 19 -77 7 -43 14 -82 16
-88 8 -33 17 -78 27 -135 6 -36 14 -67 17 -70 4 -3 7 -14 8 -25 3 -61 22 -154
32 -160 4 -2 5 -16 2 -30 -2 -14 0 -25 5 -25 6 0 9 -12 7 -27 -1 -15 0 -32 4
-38 4 -5 7 -21 8 -35 2 -22 6 -43 29 -130 2 -8 4 -15 5 -15 1 0 3 -9 5 -19 2
-11 12 -52 21 -90 10 -39 17 -74 16 -79 -1 -4 1 -7 6 -7 4 0 8 -10 8 -22 1
-13 8 -46 16 -74 12 -42 12 -55 1 -82 -7 -18 -17 -32 -22 -32 -8 0 -34 -52
-38 -79 -1 -7 -10 -19 -20 -26 -10 -7 -29 -35 -43 -62 -14 -26 -28 -49 -32
-51 -4 -2 -2 -14 4 -27 10 -23 33 -36 68 -40 15 -1 83 -22 110 -33 8 -3 20 -7
25 -8 6 -1 12 -3 15 -4 3 -1 16 -4 30 -6 35 -7 39 -12 45 -82 3 -35 10 -74 15
-88 5 -13 7 -24 4 -24 -4 0 0 -7 7 -16 8 -9 14 -22 14 -28 1 -6 7 -31 15 -56
7 -25 13 -48 12 -52 -1 -5 2 -8 7 -8 5 0 7 -9 4 -20 -3 -11 -9 -17 -14 -14 -5
3 -9 1 -9 -4 0 -6 -11 -13 -25 -16 -14 -4 -25 -11 -25 -16 0 -6 -9 -10 -20
-10 -11 0 -20 -3 -20 -8 0 -4 -14 -13 -32 -21 -29 -13 -30 -15 -13 -27 10 -7
23 -10 29 -6 6 4 18 7 26 7 8 0 42 9 74 18 47 15 61 16 67 6 4 -7 5 -17 2 -23
-3 -5 -1 -6 5 -2 7 4 12 1 12 -8 0 -9 6 -16 14 -16 9 0 13 -7 11 -20 -2 -13 2
-20 11 -20 8 0 12 -4 9 -10 -3 -5 -1 -10 6 -10 7 0 10 -3 7 -6 -4 -3 14 -26
38 -52 24 -25 44 -50 44 -54 0 -5 4 -7 9 -3 6 3 13 0 18 -7 11 -17 102 -50
116 -41 6 3 7 1 3 -5 -5 -8 3 -12 23 -12 18 0 31 5 31 13 0 8 3 8 8 2 4 -6 12
-10 17 -10 23 3 72 19 97 32 15 7 31 14 35 16 12 3 58 48 55 53 -3 5 10 21 46
59 12 13 22 31 22 40 0 8 4 15 10 15 5 0 7 7 4 15 -3 8 1 22 10 30 9 9 16 25
16 36 0 11 4 17 10 14 6 -3 7 1 4 9 -4 9 -1 16 6 16 7 0 10 8 7 20 -3 11 -1
20 3 20 9 0 28 81 32 132 1 16 6 28 10 28 4 0 6 18 5 40 -2 22 1 40 6 40 5 0
6 7 3 16 -3 8 -2 13 3 9 5 -3 23 6 39 20 16 14 37 25 45 25 8 0 17 4 19 8 2 4
26 21 53 37 28 16 55 33 62 39 34 30 43 36 54 36 6 0 20 11 31 25 11 14 24 25
29 25 12 0 91 60 102 78 7 11 12 10 23 -5 10 -13 13 -14 14 -4 0 8 3 12 6 8 8
-8 46 32 40 42 -3 4 2 17 12 27 35 39 48 58 34 50 -20 -12 0 21 33 56 14 16
23 28 20 28 -7 0 64 91 80 102 6 5 6 8 0 8 -5 0 0 7 11 15 12 8 27 28 34 44 8
21 17 28 28 24 10 -4 14 -3 10 1 -8 9 66 86 107 112 17 10 36 27 43 36 7 10
19 18 26 18 8 0 19 7 26 15 7 9 15 13 17 11 3 -3 14 4 26 15 11 10 29 19 39
19 10 0 18 4 18 10 0 5 3 9 8 8 12 -3 91 22 96 30 3 5 19 7 35 6 17 -1 31 1
31 6 0 7 85 5 120 -3 52 -12 140 -43 140 -49 0 -4 6 -8 14 -8 7 0 40 -13 72
-30 32 -16 66 -30 75 -30 9 0 26 -9 39 -20 13 -11 28 -20 33 -20 6 0 40 -13
76 -29 94 -42 115 -49 154 -53 9 -1 17 -6 17 -11 0 -5 8 -6 18 -3 9 3 39 -2
64 -12 47 -18 47 -18 32 -41 -9 -12 -25 -26 -37 -30 -38 -14 -2 -19 38 -5 53
18 185 162 185 202 0 17 20 52 49 84 13 14 21 31 17 36 -3 5 4 18 14 30 11 12
20 28 20 37 0 9 6 18 13 21 8 3 14 10 15 17 1 7 3 23 4 37 2 14 7 28 13 32 11
8 75 -58 75 -78 0 -8 7 -14 15 -14 8 0 15 -4 15 -9 0 -5 14 -14 31 -20 54 -19
77 7 93 104 11 70 18 86 32 74 8 -6 23 -9 34 -6 12 3 20 0 20 -8 0 -14 28 -29
48 -26 6 1 12 -3 12 -8 0 -6 7 -8 15 -5 8 4 15 1 15 -6 0 -8 9 -11 25 -8 14 3
28 2 30 -2 6 -9 92 -7 101 2 8 9 56 -1 71 -14 10 -8 13 -6 13 6 0 10 4 15 9
12 5 -3 7 -16 3 -28 -3 -14 -2 -19 6 -14 7 4 12 4 12 -1 0 -16 50 -8 55 8 8
24 45 32 45 10 0 -20 37 -25 59 -8 12 10 13 9 6 -3 -4 -8 2 -5 14 8 18 18 26
21 37 11 10 -8 14 -8 14 0 0 6 9 11 20 11 19 0 84 34 79 41 -1 2 1 14 5 26 7
22 36 40 36 22 0 -6 5 -9 12 -7 11 4 16 19 20 61 1 10 8 15 15 13 23 -9 42 22
40 64 -2 33 0 39 13 34 8 -3 27 -11 43 -16 15 -5 27 -13 27 -16 0 -7 30 -44
73 -92 39 -42 39 -47 6 -64 -17 -9 -35 -14 -39 -11 -3 2 -7 -2 -7 -10 0 -18 2
-18 30 -3 46 25 65 21 97 -23 16 -23 30 -38 30 -34 0 4 9 0 19 -9 39 -35 85
-54 113 -46 14 5 29 6 31 3 23 -23 227 11 227 38 0 5 5 9 11 9 6 0 31 14 56
30 24 17 55 30 68 30 13 0 26 4 30 10 3 5 12 7 20 3 8 -3 15 1 15 8 0 7 3 9 7
6 3 -4 12 -2 20 4 7 6 13 8 13 4 0 -4 11 0 25 9 13 9 32 17 42 19 10 2 29 9
43 17 14 8 28 15 33 16 4 1 10 3 15 4 4 1 10 2 13 2 3 -1 19 12 34 28 15 16
34 26 42 23 7 -3 21 1 31 8 9 8 34 23 54 33 20 10 39 25 42 33 3 8 10 11 16 8
10 -6 97 48 117 74 7 9 13 13 13 9 0 -14 100 77 100 91 0 4 12 13 26 19 14 7
22 17 19 22 -3 6 2 13 11 17 25 9 59 46 56 60 -1 6 8 13 20 15 13 2 24 9 24
16 1 6 3 15 4 20 1 4 2 10 1 15 -1 7 15 11 32 8 4 -1 13 10 19 24 6 14 18 25
25 25 8 0 11 4 8 10 -3 5 8 24 24 41 17 17 28 35 25 40 -3 5 0 9 6 9 6 0 9 4
6 9 -4 5 -3 11 2 13 16 6 73 103 83 140 5 21 14 38 19 38 6 0 10 7 10 15 0 9
14 41 31 73 29 53 30 63 27 137 -4 69 -9 89 -36 135 -18 30 -45 70 -60 89 -26
33 -26 34 -4 22 13 -7 26 -10 29 -7 3 3 -12 13 -33 23 -22 10 -42 23 -46 28
-3 6 -15 20 -25 31 -10 12 -34 41 -53 64 -19 23 -47 56 -62 74 -15 17 -33 47
-39 66 -25 75 -194 273 -251 293 -10 4 -18 13 -18 22 0 8 -4 15 -8 15 -13 0
-53 36 -47 42 3 3 -13 11 -35 18 -26 9 -39 18 -36 26 3 8 1 16 -4 19 -6 4 -10
-1 -10 -9 0 -9 -5 -16 -11 -16 -6 0 -9 9 -6 20 4 17 -2 22 -39 31 -32 8 -42
15 -35 23 11 13 -16 79 -29 71 -5 -3 -25 6 -46 20 -20 14 -42 25 -49 25 -10 0
-38 31 -65 70 -8 11 -54 35 -63 32 -5 -1 -11 6 -14 17 -3 11 -18 25 -34 31
-16 7 -29 16 -29 20 0 4 -13 13 -30 20 -16 7 -30 17 -30 22 0 8 -63 50 -75 49
-3 -1 -14 7 -24 17 -38 34 -49 41 -55 35 -3 -4 -6 -1 -6 5 0 7 -6 12 -13 12
-8 0 -24 11 -37 25 -13 14 -29 25 -36 25 -6 0 -17 7 -24 15 -7 8 -16 12 -21 9
-5 -3 -9 -1 -9 4 0 6 -13 15 -30 21 -16 5 -30 15 -30 21 0 6 -3 9 -7 7 -5 -3
-26 5 -48 17 l-39 22 -2 100 c-2 103 -4 120 -19 144 -5 8 -9 28 -10 45 -1 16
-5 37 -8 45 -5 15 -13 58 -21 115 -2 17 0 35 6 42 5 7 7 41 4 80 -6 86 -8 93
-18 93 -4 0 -7 3 -6 8 1 4 -4 25 -10 47 -12 41 -28 67 -69 110 -12 13 -19 26
-16 29 4 3 1 6 -5 6 -6 0 -18 12 -26 28 -9 15 -48 61 -87 102 -40 41 -72 78
-71 83 1 4 -2 7 -8 7 -5 0 -46 36 -90 80 -44 44 -85 80 -90 80 -5 0 -28 19
-52 42 -64 62 -131 118 -143 118 -6 0 -18 9 -28 20 -9 11 -23 20 -30 20 -7 0
-32 18 -55 39 -44 41 -151 111 -170 111 -6 0 -15 6 -19 14 -9 16 -79 66 -92
66 -5 0 -11 7 -15 15 -3 8 -12 15 -21 15 -8 0 -15 4 -15 9 0 5 -9 13 -20 16
-11 4 -32 17 -45 31 -13 13 -28 24 -33 24 -6 0 -32 15 -60 34 -27 19 -65 43
-83 53 -53 29 -117 71 -123 81 -3 5 -17 8 -31 7 -16 -2 -25 2 -25 11 0 8 -9
14 -20 14 -11 0 -23 6 -26 14 -7 19 -82 68 -93 61 -5 -2 -14 2 -21 10 -7 8
-19 15 -27 15 -8 0 -12 4 -9 8 4 7 -10 11 -51 14 -7 1 -13 7 -13 14 0 7 -9 16
-20 19 -11 3 -20 10 -20 14 0 4 -6 8 -12 8 -7 0 -49 17 -93 39 -44 21 -83 37
-87 36 -5 -1 -8 2 -8 6 0 5 -6 9 -14 9 -8 0 -12 -6 -9 -14 3 -8 -2 -13 -13
-13 -9 0 -15 3 -11 6 5 5 -9 20 -63 66 -8 7 -17 13 -20 13 -24 3 -49 19 -53
35 -3 11 -12 20 -21 20 -9 0 -16 7 -16 15 0 8 -6 15 -14 15 -8 0 -49 34 -92
75 -43 41 -83 75 -88 75 -6 0 -24 12 -41 26 -64 56 -95 76 -110 70 -18 -7 -19
-2 -4 23 15 24 6 60 -26 97 -14 16 -25 32 -25 36 0 4 -18 17 -39 29 -26 14
-39 28 -38 40 1 11 5 19 10 19 5 0 5 6 0 13 -6 6 -11 19 -11 27 -7 86 -11 100
-51 154 -24 31 -50 60 -59 63 -9 4 -24 14 -32 23 -8 9 -35 30 -60 47 -48 33
-80 67 -80 84 0 6 -18 28 -40 49 -22 21 -40 43 -40 49 0 6 -7 11 -15 11 -22 0
-34 30 -24 59 12 30 -4 52 -24 32 -10 -11 -9 -12 3 -6 13 8 13 7 1 -8 -17 -22
-27 -21 -53 3 -12 11 -28 20 -35 20 -15 0 -92 78 -103 105 -6 16 0 23 34 39
23 11 43 20 46 21 3 1 19 8 35 15 17 7 35 14 42 16 7 1 26 12 42 23 16 12 36
21 45 21 9 0 16 3 16 8 0 4 11 12 25 19 14 6 25 8 25 4 0 -10 36 -52 47 -54 4
-1 16 -8 26 -17 10 -8 23 -15 29 -15 7 0 19 -13 28 -30 8 -16 22 -35 31 -42 8
-6 30 -26 49 -43 35 -33 53 -34 58 -4 7 38 17 32 16 -11 -2 -37 2 -47 31 -72
18 -15 39 -29 46 -31 20 -5 39 -23 39 -36 0 -9 53 -47 70 -51 3 0 14 -6 25
-12 18 -11 18 -12 2 -13 -10 0 -15 -5 -12 -10 4 -6 11 -8 16 -5 5 3 6 -1 3 -9
-4 -10 -1 -16 7 -16 11 0 11 -3 -1 -10 -12 -8 -12 -10 -1 -10 9 0 10 -4 4 -12
-13 -16 -13 -48 -1 -48 5 0 6 -4 3 -10 -3 -5 3 -10 15 -10 12 0 18 -4 15 -10
-3 -5 -2 -10 3 -10 5 0 26 -18 48 -40 21 -22 44 -40 49 -40 6 0 16 -5 23 -12
6 -6 44 -13 84 -15 192 -9 284 -10 293 -4 15 9 35 6 77 -13 21 -9 42 -16 48
-16 5 0 10 -4 10 -8 0 -7 101 -58 130 -66 43 -13 88 -31 100 -42 15 -13 58
-31 74 -32 5 0 12 -4 15 -9 7 -10 59 -35 80 -39 8 -1 17 -7 20 -12 3 -5 20
-13 37 -16 17 -4 41 -16 53 -27 11 -11 21 -17 21 -14 0 6 79 -34 90 -45 3 -3
39 -23 80 -44 117 -59 191 -108 235 -153 12 -13 30 -23 40 -23 10 0 16 -3 12
-6 -6 -6 16 -34 27 -34 2 0 17 -5 33 -12 15 -6 37 -13 48 -15 10 -2 22 -9 27
-15 4 -7 10 -10 13 -6 3 3 28 0 56 -7 27 -7 58 -11 69 -8 13 3 20 0 20 -8 0
-10 3 -10 12 -1 16 16 31 15 22 0 -6 -10 -5 -10 8 -1 8 7 17 11 19 9 2 -2 23
-1 47 4 29 5 42 4 42 -4 0 -8 2 -8 8 0 6 10 35 23 65 30 4 1 10 3 15 4 4 2 12
4 17 4 22 3 61 42 75 76 14 35 45 72 53 64 2 -3 12 7 21 21 9 14 21 23 26 20
9 -6 80 32 92 50 4 5 8 6 8 1 0 -5 8 0 18 10 35 40 129 114 135 107 4 -3 7 -1
7 5 0 6 20 32 45 58 25 25 45 50 45 56 0 5 5 6 10 3 6 -3 10 1 10 9 0 8 8 20
18 25 9 6 14 11 10 11 -5 0 2 12 15 26 12 14 22 29 23 32 1 4 7 23 15 42 7 19
12 38 11 43 -1 4 2 7 8 7 5 0 10 9 10 20 0 11 4 20 9 20 6 0 8 9 6 20 -2 11
-1 20 3 20 4 0 8 8 9 18 0 9 4 37 7 62 13 97 13 107 -6 130 -24 30 -97 33
-126 7 -10 -9 -22 -14 -25 -10 -4 3 -7 1 -7 -5 0 -14 -94 -64 -130 -70 -13 -2
-27 -7 -30 -11 -8 -12 -100 -62 -100 -55 0 3 -6 2 -12 -3 -15 -12 -191 -71
-226 -76 -12 -2 -28 -9 -34 -15 -7 -7 -24 -12 -39 -12 -15 0 -37 -11 -53 -26
-14 -15 -26 -22 -26 -16 0 6 -7 9 -15 6 -8 -4 -15 -1 -15 5 0 7 -6 11 -12 9
-7 -1 -31 4 -53 12 -22 7 -49 14 -60 16 -39 4 -70 14 -73 24 -2 5 -9 10 -15
10 -7 0 -24 7 -39 14 -16 9 -30 11 -33 5 -4 -5 -11 -9 -17 -9 -6 0 -8 3 -5 7
11 11 -27 32 -39 22 -8 -6 -14 -4 -18 6 -3 8 -12 15 -21 15 -27 0 -16 16 13
17 38 2 61 8 113 31 24 11 58 24 74 28 17 4 32 8 35 9 61 16 105 54 97 85 -3
12 -1 18 5 14 6 -4 8 6 5 25 -3 17 -1 33 4 37 5 3 9 14 9 24 0 10 5 20 12 22
6 2 13 26 15 54 2 27 8 53 14 58 5 6 9 36 9 68 0 32 4 58 8 58 5 0 8 10 7 22
-2 24 48 74 64 64 5 -4 11 -1 13 5 2 6 23 12 45 13 31 1 53 11 84 36 24 18 37
36 31 38 -7 2 -12 10 -12 18 0 8 -5 14 -11 14 -8 0 -8 5 1 15 7 8 8 15 3 15
-11 0 -11 50 -1 66 4 6 6 38 3 71 l-4 59 32 2 c17 2 34 8 38 14 4 6 14 8 23 5
9 -4 16 -1 16 5 0 6 3 9 6 5 5 -5 124 59 134 73 5 7 52 20 83 23 9 1 17 4 17
7 0 4 22 12 50 19 27 7 53 17 56 23 4 6 10 5 15 -3 7 -11 9 -11 9 -1 0 7 5 10
10 7 6 -3 10 -2 10 4 0 5 16 9 35 8 19 -1 35 -6 35 -11 0 -5 6 -4 13 2 7 6 36
13 66 15 29 3 57 9 63 15 5 5 24 6 44 2 19 -4 34 -4 34 1 0 4 7 6 15 3 8 -4
15 -2 15 3 0 5 17 8 38 7 20 -1 37 -2 37 -4 0 -1 8 -3 18 -5 9 -2 17 0 17 3 0
4 10 8 23 9 53 4 142 25 145 34 2 5 7 7 11 5 16 -10 33 14 38 54 6 40 4 44
-41 86 -26 24 -52 44 -58 44 -5 0 -16 6 -24 14 -7 8 -19 16 -26 18 -7 3 -9 11
-3 24 13 32 14 48 3 61 -6 7 -8 21 -6 31 3 11 1 41 -4 68 -5 27 -10 73 -12
102 -1 33 -8 57 -17 63 -11 7 -11 9 0 9 8 0 11 6 6 18 -4 9 -9 31 -12 47 -3
17 -9 33 -14 36 -5 3 -7 13 -3 22 3 9 1 17 -4 17 -6 0 -8 10 -5 23 8 36 5 58
-11 76 -9 10 -16 29 -16 42 1 13 -1 40 -4 59 -14 87 -21 95 -54 59 -17 -17
-20 -18 -25 -5 -4 9 -1 16 6 16 7 0 18 9 25 21 8 12 9 18 3 14 -6 -3 -11 1
-11 9 0 9 4 16 8 16 7 0 8 32 2 50 -1 3 -2 20 -2 38 0 18 -5 35 -9 38 -5 3 -9
16 -9 29 0 18 -7 26 -25 31 -14 3 -25 10 -25 16 0 5 3 7 8 5 4 -3 13 1 20 9 9
10 9 14 1 14 -6 0 -9 6 -6 13 3 7 -1 21 -8 31 -7 10 -11 28 -9 42 2 13 0 24
-5 24 -6 0 -8 7 -4 15 3 9 -2 24 -11 34 -11 12 -13 21 -7 25 6 4 4 16 -5 34
-7 15 -14 37 -14 49 0 12 -9 42 -20 68 -11 26 -18 51 -15 55 3 5 1 11 -5 15
-5 3 -10 19 -10 36 0 16 -4 29 -9 29 -13 0 -23 38 -25 95 -2 28 -6 64 -11 80
-4 17 -7 37 -6 46 1 9 -5 37 -14 63 -9 27 -14 50 -11 53 3 3 1 15 -5 26 -8 14
-8 17 0 13 5 -4 20 3 31 14 12 12 24 19 27 17 3 -3 18 7 33 23 34 35 46 102
23 122 -13 10 -13 14 2 24 19 14 21 24 6 33 -6 4 -12 23 -15 43 -2 21 -10 53
-17 73 -10 26 -10 43 -3 63 6 15 7 40 3 55 -4 16 -9 52 -10 80 -1 29 -7 58
-13 66 -9 12 -8 13 3 6 11 -6 13 -3 7 16 -10 34 -17 80 -17 111 0 15 -4 30
-10 33 -5 4 -7 11 -3 16 10 17 12 59 3 59 -5 0 -9 13 -9 28 0 16 -6 37 -14 47
-9 12 -11 26 -6 35 12 22 4 98 -13 114 -9 10 -16 47 -20 116 -4 81 -9 104 -23
114 -11 9 -13 15 -6 20 16 9 3 36 -14 29 -13 -5 -19 9 -14 32 1 6 4 23 6 38 2
16 6 32 9 37 3 5 -1 13 -10 17 -9 5 -17 27 -19 53 -2 25 -7 56 -10 70 -3 14
-8 34 -10 45 -2 11 -10 40 -17 65 -7 25 -13 52 -13 60 -1 8 -7 23 -16 32 -8
10 -15 30 -16 45 -3 54 -16 108 -27 118 -7 6 -13 25 -15 44 -1 19 -7 40 -12
46 -5 7 -7 15 -4 18 4 3 -1 14 -11 23 -9 9 -14 25 -12 35 3 11 -2 19 -15 22
-15 4 -19 13 -17 44 2 41 -26 149 -45 172 -6 8 -10 15 -8 15 5 1 -10 59 -18
71 -4 6 -14 29 -24 53 -14 37 -14 46 -3 63 8 10 17 16 22 11 5 -4 5 -2 1 5 -3
6 -2 14 4 18 7 4 6 13 -1 27 -6 12 -7 18 -1 14 5 -3 14 2 18 12 9 18 12 412 4
412 -3 0 -5 26 -5 58 1 31 -2 69 -6 83 -4 16 -2 32 4 39 9 10 9 11 -1 5 -11
-6 -13 7 -9 63 2 39 0 75 -5 80 -6 6 -10 27 -10 49 0 21 -4 43 -10 50 -5 6 -9
20 -8 30 1 10 1 20 0 23 -1 3 -4 25 -5 50 -1 25 -4 45 -5 45 -2 0 -11 36 -15
65 -2 14 -7 36 -10 50 -3 14 -7 30 -8 35 -2 6 -7 16 -11 24 -7 10 -6 12 4 6 9
-5 11 -4 6 3 -8 13 -9 18 -30 112 -8 36 -13 67 -10 69 2 2 -1 10 -6 17 -11 12
-16 30 -27 89 -3 17 -9 38 -14 47 -5 9 -9 26 -9 37 0 12 -5 21 -11 21 -6 0 -9
6 -7 12 3 7 -4 35 -14 63 -16 44 -16 51 -3 64 12 12 15 12 15 2 0 -11 3 -11
17 0 9 8 19 13 22 11 9 -5 111 31 111 39 0 4 11 6 25 3 14 -2 25 -1 25 4 0 5
21 14 48 20 26 7 56 15 67 18 11 3 32 7 48 8 15 0 27 4 27 8 0 4 12 6 28 6 15
0 50 5 77 12 28 6 70 14 95 16 25 3 61 7 80 9 19 2 62 7 95 11 33 3 63 11 66
16 10 16 20 14 31 -5 7 -14 13 -15 23 -7 11 9 90 13 217 11 15 -1 34 -8 42
-17 9 -8 16 -12 16 -8 0 3 6 2 13 -3 14 -11 47 -13 47 -3 0 4 11 12 25 18 14
6 25 18 25 27 0 8 4 15 9 15 12 0 1 73 -11 81 -6 3 -8 8 -7 10 2 2 -4 15 -14
29 -9 13 -17 21 -17 16 0 -5 -6 -4 -12 0 -7 5 -20 9 -28 8 -8 -1 -21 -2 -28
-3 -7 0 -28 -17 -47 -35 -26 -26 -41 -34 -57 -30 -13 3 -38 6 -55 7 -27 2 -33
6 -33 24 0 13 3 23 8 23 12 0 6 84 -8 111 -16 30 -33 47 -85 83 -22 15 -33 26
-25 25 8 -2 31 2 50 9 19 6 50 14 69 17 19 3 41 10 50 14 17 9 85 24 111 25
21 1 43 24 34 37 -4 7 2 6 17 -2 26 -14 76 -14 114 1 35 13 49 53 33 96 -11
31 -20 38 -40 35 -5 0 -8 4 -8 9 0 17 -13 11 -48 -20 -18 -16 -40 -26 -48 -23
-8 3 -14 -1 -14 -10 0 -8 6 -18 13 -20 8 -4 9 -6 0 -6 -6 -1 -18 5 -25 13 -16
15 -68 19 -68 4 0 -5 -4 -6 -10 -3 -5 3 -10 0 -10 -7 0 -9 -3 -9 -10 2 -5 8
-10 10 -10 5 0 -6 -17 -11 -37 -11 -46 -1 -102 -9 -109 -17 -4 -3 -12 0 -19 6
-10 9 -10 16 -2 25 12 15 18 132 7 132 -4 0 -5 11 -2 25 3 19 0 25 -14 25 -14
0 -15 3 -6 8 23 15 -15 99 -74 159 -17 18 -34 29 -38 26 -3 -3 -6 1 -6 11 0 9
-4 15 -9 12 -5 -3 -11 0 -14 8 -3 8 -19 21 -36 29 -17 9 -29 12 -26 7 3 -5 1
-12 -5 -15 -6 -4 -9 -1 -8 6 2 7 -13 23 -32 35 -19 13 -40 28 -47 34 -7 5 -17
10 -23 10 -19 0 17 30 50 41 16 6 30 15 30 21 0 5 4 7 9 4 5 -3 25 5 45 19 20
13 36 21 36 17 0 -4 4 -1 8 5 4 7 17 14 27 16 27 5 57 18 74 31 8 6 26 12 40
13 65 5 90 20 92 58 3 41 -13 68 -54 90 -32 17 -89 16 -86 -3 4 -22 -2 -42
-11 -37 -5 3 -10 1 -10 -6 0 -7 -3 -10 -6 -6 -4 3 -13 -1 -21 -9 -8 -8 -19
-12 -24 -8 -5 3 -12 -2 -15 -10 -3 -9 -10 -13 -15 -10 -5 3 -9 0 -9 -5 0 -6
-3 -10 -7 -9 -12 2 -66 -22 -83 -36 -8 -8 -28 -16 -45 -19 -16 -3 -42 -9 -57
-12 -24 -6 -26 -5 -24 19 2 14 -1 26 -6 26 -5 0 -7 4 -4 8 8 13 -35 94 -66
125 -15 15 -28 31 -28 35 -1 9 -84 62 -99 62 -6 0 -11 4 -11 9 0 5 -11 12 -25
15 -14 4 -25 11 -25 17 0 6 -4 8 -10 4 -5 -3 -25 1 -45 9 -19 8 -35 13 -35 10
0 -2 -12 1 -27 9 -16 7 -43 12 -61 11 -36 -2 -75 22 -64 40 6 11 12 36 15 73
1 11 5 19 10 16 4 -2 7 2 7 10 0 8 8 29 17 48 10 19 16 42 14 53 -1 10 2 16 7
12 8 -5 13 8 28 72 1 8 5 16 8 19 3 3 -2 18 -11 33 -27 47 -88 29 -91 -28 -1
-24 -41 -76 -133 -173 -31 -32 -54 -59 -51 -59 3 0 -21 -26 -54 -58 -33 -32
-63 -65 -66 -74 -4 -8 -33 -35 -67 -60 -33 -25 -58 -48 -55 -51 2 -2 -8 -12
-23 -22 -15 -10 -49 -39 -75 -64 -27 -25 -61 -57 -78 -70 -16 -13 -27 -28 -24
-33 3 -4 3 -8 0 -8 -4 0 -14 18 -23 40 -10 22 -21 40 -25 40 -5 0 -8 8 -8 19
0 10 -9 30 -21 45 -11 14 -17 26 -13 26 4 0 -1 7 -12 16 -10 8 -12 12 -4 8 14
-8 -20 37 -76 99 -14 16 -23 34 -21 40 2 7 -1 17 -7 24 -27 31 -36 43 -36 49
0 3 -14 24 -31 45 -17 21 -27 39 -24 39 4 0 -23 29 -60 64 -60 58 -105 80
-105 53 0 -5 6 -7 14 -4 8 3 21 -2 30 -12 23 -26 20 -37 -5 -15 -12 10 -22 18
-23 17 -5 -8 -46 12 -46 21 0 7 -6 13 -12 13 -21 1 -172 57 -179 66 -6 8 -69
27 -96 29 -7 1 -13 5 -13 9 0 9 -64 28 -105 31 -11 1 -25 5 -31 9 -5 5 -29 11
-53 14 -64 8 -91 16 -91 27 0 7 -5 7 -12 1 -16 -12 -27 -11 -55 5 -12 6 -29 9
-37 6 -9 -3 -16 -1 -16 6 0 6 -8 10 -17 9 -10 -1 -44 3 -75 10 -64 14 -103 7
-94 -15 3 -8 -1 -14 -11 -14 -9 0 -13 3 -10 6 13 13 -13 42 -33 37 -11 -3 -20
-1 -20 3 0 5 -13 10 -30 10 -17 1 -27 -2 -24 -8 4 -6 -3 -5 -14 1 -22 12 -89
23 -132 22 -14 0 -32 2 -40 5 -8 3 -40 7 -70 9 -30 2 -66 5 -80 7 -14 3 -33 0
-44 -5 -10 -5 -21 -5 -25 0 -3 4 -34 9 -69 10 -35 1 -68 6 -75 11 -7 5 -25 10
-42 10 -16 1 -50 5 -75 10 -25 5 -56 8 -68 7 -12 -1 -22 1 -22 4 0 3 -17 7
-38 8 -72 4 -158 13 -225 24 -38 6 -71 8 -74 5 -3 -3 -12 -1 -20 5 -7 6 -13 8
-13 4 0 -4 -8 -1 -17 6 -14 12 -16 12 -8 0 6 -11 5 -12 -6 -5 -22 13 -189 14
-189 0 0 -7 -3 -6 -9 2 -9 14 -119 21 -139 8 -7 -4 -12 -2 -12 4 0 6 -4 9 -9
5 -5 -3 -12 -1 -16 4 -4 7 -15 6 -30 -1 -19 -8 -32 -8 -51 0 -20 10 -24 10
-18 0 6 -10 5 -11 -8 -1 -8 7 -18 9 -22 5z m2881 -637 c0 -8 -4 -12 -9 -9 -5
3 -6 10 -3 15 9 13 12 11 12 -6z m945 -185 c4 -1 17 -4 28 -7 11 -3 20 -9 20
-14 0 -5 6 -9 14 -9 8 0 16 -7 20 -15 3 -9 0 -15 -10 -15 -20 0 -84 29 -106
48 -21 18 -13 36 10 23 9 -5 20 -10 24 -11z m-121 -122 c8 -15 8 -19 0 -14 -7
4 -11 -1 -11 -13 0 -12 -5 -21 -10 -21 -6 0 -21 -9 -32 -20 -27 -25 -35 -23
-56 14 -13 22 -14 30 -4 33 6 3 9 10 6 15 -4 6 -2 8 4 4 6 -3 13 -2 17 4 4 6
11 8 16 5 5 -4 9 -1 9 5 0 6 5 8 10 5 6 -3 10 -2 10 4 0 16 29 1 41 -21z
m-2861 -32 c0 -11 -19 -15 -25 -6 -3 5 1 10 9 10 9 0 16 -2 16 -4z m414 -411
c3 -8 1 -15 -3 -15 -5 0 -11 7 -15 15 -3 8 -1 15 3 15 5 0 11 -7 15 -15z
m3046 -775 c0 13 2 13 9 1 8 -12 12 -12 24 -2 11 8 17 9 22 1 3 -6 10 -8 14
-5 5 2 17 -2 27 -10 10 -8 14 -15 8 -15 -7 0 -14 -8 -16 -17 -4 -14 -17 -19
-59 -21 -46 -2 -56 0 -67 19 -11 17 -11 20 0 13 11 -6 11 -5 0 8 -11 14 -10
18 5 26 12 7 20 7 25 -1 5 -8 8 -7 8 3z m-1153 -1201 c1 -13 0 -18 -3 -11 -3
6 -9 10 -13 8 -4 -3 -7 4 -7 15 0 28 21 17 23 -12z m-7897 -1129 c0 -5 -5 -10
-11 -10 -5 0 -7 5 -4 10 3 6 8 10 11 10 2 0 4 -4 4 -10z m-357 -273 c-3 -5 -9
-3 -14 4 -4 7 -5 17 -2 22 3 5 9 3 14 -4 4 -7 5 -17 2 -22z m-898 -156 c3 -5
2 -12 -3 -15 -5 -3 -9 1 -9 9 0 17 3 19 12 6z m1888 -903 c-2 -5 1 -8 7 -8 6
0 8 -5 4 -11 -3 -6 -1 -15 6 -19 7 -4 14 -25 16 -46 2 -22 10 -44 19 -50 8 -6
15 -16 15 -23 0 -6 6 -11 13 -12 9 0 9 -2 0 -6 -9 -3 -10 -10 -3 -23 6 -11 9
-23 8 -27 -3 -16 14 -63 24 -63 5 0 7 -4 4 -9 -3 -5 1 -11 9 -15 8 -3 12 -12
9 -20 -3 -7 6 -26 21 -40 14 -14 23 -31 20 -36 -4 -6 6 -32 21 -58 15 -25 31
-62 35 -82 18 -81 23 -95 35 -108 7 -7 11 -19 8 -27 -4 -8 -2 -15 4 -15 6 0
15 -23 21 -51 6 -28 16 -59 21 -70 6 -10 7 -19 3 -19 -5 0 -8 -38 -8 -85 0
-47 3 -85 6 -85 4 0 7 -29 8 -65 0 -36 -3 -65 -7 -65 -5 0 -25 16 -47 35 -29
27 -40 32 -47 23 -4 -7 -8 -11 -9 -8 0 3 -2 12 -4 20 -3 8 -6 23 -8 33 -2 10
-11 27 -20 38 -9 10 -17 26 -17 34 0 7 -4 17 -10 20 -5 3 -10 16 -10 29 0 12
-3 26 -7 30 -4 3 -8 12 -9 19 -1 7 -5 26 -9 42 -3 17 -7 36 -7 43 -1 6 -5 12
-10 12 -5 0 -7 4 -4 9 4 5 -1 35 -9 66 -8 32 -12 61 -10 66 3 4 1 11 -5 14 -6
4 -8 15 -5 26 4 10 2 19 -3 19 -6 0 -9 8 -7 18 1 9 -1 22 -5 27 -4 6 -11 37
-15 70 -4 33 -10 65 -13 70 -4 6 -7 28 -8 50 -2 40 -10 113 -19 172 -10 66
-14 208 -6 188 5 -11 7 -23 4 -27z m6602 -1108 c-3 -6 1 -17 9 -26 9 -8 16
-24 16 -34 0 -10 5 -20 12 -22 18 -6 -8 -78 -43 -119 -16 -19 -29 -37 -29 -41
0 -12 -42 -58 -52 -58 -5 0 -7 9 -3 19 3 11 1 22 -4 26 -6 3 -15 -14 -22 -40
-6 -25 -15 -45 -20 -45 -5 0 -4 -12 2 -27 6 -15 6 -29 1 -32 -5 -3 -7 -31 -5
-61 5 -63 5 -83 0 -125 -2 -16 1 -34 7 -38 8 -6 7 -10 -1 -13 -8 -4 -9 -13 -3
-29 6 -17 4 -27 -8 -38 -9 -9 -36 -34 -59 -56 -23 -23 -47 -41 -52 -41 -5 0
-17 -10 -25 -22 -9 -12 -16 -19 -16 -14 0 5 -8 2 -18 -7 -10 -10 -22 -14 -25
-10 -4 3 -7 1 -7 -5 0 -7 6 -12 14 -12 17 0 20 -77 4 -97 -6 -7 -5 -14 2 -18
5 -3 10 -15 10 -27 0 -16 -3 -18 -14 -9 -10 8 -13 27 -10 60 3 39 1 50 -13 55
-11 5 -14 10 -6 14 7 5 8 25 1 67 -12 85 -10 386 4 400 3 4 4 18 2 31 -2 13 1
34 7 45 8 17 8 20 -1 14 -9 -6 -9 -3 -1 12 6 11 8 22 6 25 -2 2 6 14 18 25 53
51 78 73 85 73 11 1 62 48 62 58 0 5 13 15 30 22 16 7 32 21 35 31 4 10 12 19
19 19 7 0 18 12 24 26 7 14 17 22 23 19 6 -4 13 2 16 14 3 12 12 21 20 21 8 0
11 -5 8 -10z m-6635 -684 c0 -3 -4 -8 -10 -11 -5 -3 -10 -1 -10 4 0 6 5 11 10
11 6 0 10 -2 10 -4z m6066 -93 c-2 -10 0 -20 4 -23 5 -3 10 -19 13 -36 3 -17
12 -45 21 -63 10 -18 14 -40 11 -51 -3 -10 -1 -21 5 -25 5 -3 10 -16 10 -28 0
-12 11 -43 24 -68 12 -26 26 -60 29 -78 6 -26 2 -34 -21 -48 -15 -10 -39 -31
-54 -46 -16 -15 -28 -25 -28 -22 0 3 -28 -22 -61 -55 -34 -33 -65 -57 -69 -55
-4 3 -13 -2 -20 -10 -7 -8 -25 -15 -41 -15 -15 0 -30 -4 -34 -10 -8 -12 -34
-2 -31 13 1 7 10 26 19 44 9 18 17 43 17 56 0 14 7 28 16 31 11 4 15 14 12 31
-3 14 -2 25 2 25 11 0 53 101 53 127 0 13 3 23 7 23 5 0 11 19 15 43 4 23 12
53 17 67 5 14 9 27 8 29 -1 2 3 7 9 10 6 4 14 29 18 57 6 45 29 93 45 94 3 0
5 -8 4 -17z m914 -56 c0 -7 -5 -18 -12 -25 -7 -7 -8 -12 -2 -12 5 0 10 -16 10
-35 1 -19 -2 -32 -7 -30 -11 7 -20 -44 -15 -82 3 -18 0 -35 -5 -39 -5 -3 -7
-10 -4 -15 4 -5 1 -9 -5 -9 -14 0 -4 -51 12 -62 10 -6 7 -10 -9 -14 -13 -4
-20 -10 -17 -15 3 -5 1 -9 -5 -9 -7 0 -7 -8 -2 -23 5 -13 5 -30 0 -39 -6 -11
-5 -19 1 -23 7 -4 7 -12 2 -18 -9 -14 -9 -43 1 -72 7 -22 43 -30 62 -16 5 5
36 9 67 10 32 0 67 5 79 11 11 7 26 9 34 7 7 -3 24 1 38 8 20 10 27 11 30 1 3
-7 32 -16 64 -20 52 -6 84 -10 148 -20 11 -2 31 -8 45 -13 14 -6 31 -7 39 -3
9 5 24 2 37 -6 12 -8 45 -16 73 -18 61 -5 69 -10 53 -36 -7 -11 -12 -27 -12
-35 0 -8 -5 -15 -11 -15 -5 0 -8 -4 -4 -9 3 -5 1 -12 -5 -16 -17 -10 -101
-201 -92 -210 3 -3 0 -5 -6 -5 -7 0 -12 -9 -12 -20 0 -11 -9 -29 -20 -40 -11
-11 -18 -20 -16 -20 10 0 -27 -75 -43 -87 -9 -7 -12 -13 -8 -13 5 0 -1 -16
-13 -35 -19 -30 -27 -59 -29 -102 -1 -7 -7 -13 -14 -13 -14 0 -42 -48 -38 -64
1 -5 -2 -12 -7 -15 -13 -9 -52 -99 -52 -120 0 -11 -8 -26 -19 -33 -10 -7 -19
-16 -20 -21 0 -4 -12 -30 -26 -57 -14 -27 -24 -51 -23 -52 2 -2 -7 -17 -20
-35 -12 -17 -22 -36 -22 -42 0 -6 -4 -11 -10 -11 -5 0 -10 -13 -10 -30 0 -16
-9 -37 -19 -47 -10 -10 -26 -35 -34 -55 -9 -21 -21 -38 -28 -38 -7 0 -10 -3
-6 -6 8 -8 -37 -96 -57 -113 -9 -8 -16 -20 -16 -27 0 -8 -4 -14 -10 -14 -5 0
-10 -6 -10 -14 0 -7 -18 -34 -40 -59 -39 -43 -51 -65 -30 -52 6 3 10 -1 10 -9
0 -9 -3 -16 -7 -16 -5 0 -17 -14 -28 -30 -24 -36 -59 -39 -85 -8 -13 17 -16
28 -9 46 5 13 11 38 13 55 6 45 29 84 46 80 10 -3 9 0 -3 7 -9 6 -27 21 -40
33 -49 47 -106 97 -111 97 -3 0 -35 23 -72 50 -37 28 -73 50 -80 50 -8 0 -14
5 -14 10 0 6 -7 10 -16 10 -8 0 -12 5 -9 10 3 6 -2 10 -13 10 -10 0 -27 9 -37
20 -9 10 -20 18 -24 17 -6 -2 -83 32 -133 59 -14 8 -33 14 -41 14 -8 0 -20 7
-27 15 -7 8 -23 15 -36 15 -13 0 -24 4 -24 8 0 4 -16 14 -34 20 -19 7 -38 22
-41 32 -4 11 -13 20 -21 20 -8 0 -14 5 -14 12 0 9 -3 9 -12 0 -15 -15 -28 -15
-28 -1 0 5 5 7 10 4 6 -3 10 -1 10 4 0 13 -3 13 -24 5 -9 -3 -13 -11 -9 -18 6
-10 -12 2 -47 31 -8 7 -48 44 -88 81 -40 38 -83 78 -95 89 -12 11 -55 54 -95
96 -40 43 -77 77 -83 77 -6 0 -7 5 -4 10 3 6 2 10 -3 10 -6 0 6 32 26 71 31
59 34 73 24 90 -10 16 -10 19 3 19 8 0 15 5 15 11 0 5 4 8 9 5 5 -3 12 4 16
17 4 12 8 25 10 30 4 10 5 16 5 22 0 3 12 25 25 50 14 25 23 45 19 45 -4 0 -1
6 5 13 6 8 8 17 4 20 -3 4 0 7 7 7 7 0 11 3 7 6 -10 10 31 82 50 88 24 7 86
18 98 18 6 -1 19 -1 30 -2 11 -1 43 2 70 5 28 4 56 7 63 7 6 1 12 4 12 7 0 3
12 7 28 7 59 4 124 14 142 24 54 29 68 30 95 4 15 -14 36 -26 46 -27 11 -1 19
-7 19 -13 0 -16 100 -91 133 -99 15 -4 27 -11 27 -17 0 -5 4 -7 9 -3 5 3 17
-2 26 -11 9 -9 18 -14 21 -12 5 5 -60 58 -71 58 -12 0 -34 27 -28 34 4 3 2 6
-4 6 -5 0 -24 14 -41 30 -18 17 -36 30 -42 30 -5 0 -10 9 -10 20 0 11 -5 20
-11 20 -5 0 -7 5 -4 10 3 6 1 10 -4 10 -6 0 -11 5 -11 10 0 21 23 9 60 -30 21
-22 41 -40 45 -40 4 0 20 -9 36 -21 16 -11 29 -17 29 -12 0 5 -18 19 -40 33
-22 14 -40 31 -40 38 0 7 -4 11 -9 7 -5 -3 -12 4 -16 15 -3 11 -11 20 -16 20
-5 0 -9 7 -9 16 0 8 4 13 8 10 5 -3 15 5 22 18 7 14 19 22 29 19 9 -2 26 5 38
16 12 12 27 21 32 21 5 0 24 13 42 30 18 16 36 27 41 24 4 -3 8 0 8 6 0 11 36
48 89 90 17 14 31 29 31 35 0 6 11 19 25 29 19 15 23 22 14 32 -6 8 -9 15 -5
15 42 9 66 21 66 34 0 7 11 27 25 43 13 16 22 32 18 36 -3 3 -2 6 4 6 6 0 13
9 16 20 6 22 27 28 27 7z m-4770 -263 c0 -2 -7 -4 -15 -4 -8 0 -15 4 -15 10 0
5 7 7 15 4 8 -4 15 -8 15 -10z m3399 -95 c-8 -5 -11 -9 -6 -9 4 0 1 -10 -7
-22 -7 -13 -17 -41 -21 -63 -5 -22 -9 -44 -11 -50 -23 -94 -36 -145 -39 -165
-2 -14 -7 -36 -10 -50 -4 -14 -7 -31 -7 -37 -1 -7 -5 -13 -9 -13 -4 0 -5 -13
-3 -28 3 -16 -1 -42 -7 -58 -7 -16 -11 -44 -10 -61 2 -18 -2 -33 -8 -33 -6 0
-10 -3 -10 -7 3 -20 -3 -47 -8 -35 -3 8 -28 38 -57 68 -28 29 -56 59 -63 66
-6 7 -26 24 -44 38 -18 14 -38 31 -45 38 -7 6 -19 12 -28 12 -8 0 -18 5 -21
10 -4 6 -11 8 -16 5 -5 -3 -7 0 -4 7 3 7 -5 18 -17 23 -13 6 -22 15 -21 20 2
15 -29 46 -42 41 -7 -2 -12 2 -12 10 0 9 6 13 14 10 8 -3 21 -2 31 3 9 5 25
12 35 15 11 4 15 11 11 17 -4 8 -3 9 4 5 6 -4 23 1 37 10 14 9 25 13 25 8 0
-4 10 2 23 13 12 11 34 23 50 27 15 3 27 11 27 17 0 6 4 8 9 4 5 -3 17 2 25
11 9 8 14 20 11 25 -4 5 4 9 18 9 13 0 33 9 45 20 12 11 26 20 31 20 5 0 17
10 25 22 9 12 16 18 16 13 0 -5 12 5 28 22 15 16 34 32 42 35 21 7 35 -3 19
-13z m-845 -1277 c41 -45 43 -70 3 -63 -4 1 -20 -5 -35 -12 -37 -18 -57 -16
-57 8 0 11 -6 27 -14 35 -12 12 -12 15 0 19 19 6 29 23 21 36 -4 5 -9 23 -11
38 l-3 29 33 -29 c18 -15 46 -43 63 -61z m-5484 -36 c0 -11 -19 -15 -25 -6 -3
5 1 10 9 10 9 0 16 -2 16 -4z m7754 -1299 c-3 -8 -11 -14 -19 -14 -11 0 -12 4
-4 14 6 7 15 13 20 13 5 0 6 -6 3 -13z m-4841 -544 c-9 -3 -10 -10 -3 -24 7
-13 7 -19 0 -19 -5 0 -10 -11 -10 -24 0 -14 -5 -28 -10 -31 -6 -4 -8 -10 -5
-15 3 -5 1 -11 -3 -14 -12 -7 -34 43 -25 57 4 7 8 20 8 30 0 9 4 16 8 15 5 -2
13 5 18 15 6 9 15 17 22 16 9 0 9 -2 0 -6z m-47 -156 c4 -4 2 -7 -5 -7 -7 0
-11 -6 -8 -12 2 -7 -10 -29 -27 -49 -17 -20 -42 -53 -56 -73 -26 -37 -46 -50
-60 -41 -5 3 -7 12 -4 20 4 8 10 13 15 10 4 -3 6 4 4 15 -2 13 1 20 11 20 11
0 13 6 9 20 -5 15 0 22 19 30 14 5 28 20 32 35 3 14 12 25 20 25 8 0 14 4 14
9 0 10 26 9 36 -2z m-392 -804 c-5 -5 -12 -12 -16 -18 -4 -6 -8 -2 -8 8 0 9 7
17 17 17 9 0 12 -3 7 -7z m-530 -1047 c-4 -11 -45 -36 -59 -36 -2 0 6 11 18
24 24 26 49 34 41 12z m5652 -264 c-2 -9 -7 -36 -11 -59 -4 -24 -11 -45 -16
-49 -5 -3 -5 -13 1 -24 6 -10 6 -21 1 -24 -8 -6 -23 -70 -27 -116 -1 -14 -2
-33 -3 -43 0 -10 -5 -16 -10 -12 -5 3 -13 0 -17 -6 -4 -8 -3 -9 5 -5 18 11 22
-12 25 -155 1 -74 7 -143 13 -154 6 -11 10 -47 9 -80 -1 -49 4 -70 29 -114 24
-42 36 -55 58 -57 15 -1 27 0 27 2 0 9 -30 36 -30 27 0 -9 -20 19 -20 29 0 3
9 4 20 1 11 -3 20 -10 20 -15 0 -5 3 -7 8 -4 4 2 25 -8 47 -23 27 -18 51 -27
73 -25 17 1 32 -2 32 -8 0 -6 22 -7 58 -3 31 3 73 8 93 10 19 1 58 11 85 20
49 17 152 26 160 14 2 -4 31 -7 65 -8 34 0 67 -5 74 -11 10 -8 15 -8 20 0 5 7
33 9 83 6 43 -3 77 -6 77 -6 0 -1 18 -3 40 -4 22 -2 50 -8 61 -14 12 -6 26 -7
35 -2 23 15 51 1 111 -59 105 -104 189 -181 199 -181 5 0 9 -7 9 -15 0 -8 4
-15 8 -15 18 0 31 -48 22 -82 -8 -28 -111 -142 -129 -143 -8 -1 -94 -57 -106
-69 -13 -14 -82 -46 -98 -46 -18 0 -67 -24 -67 -32 0 -5 -9 -8 -21 -8 -11 0
-28 -4 -38 -9 -10 -6 -29 -11 -43 -13 -14 -2 -32 -9 -40 -16 -9 -7 -30 -14
-47 -16 -18 -2 -37 -8 -43 -14 -8 -8 -17 -8 -30 -1 -10 5 -18 6 -18 1 0 -4
-10 -9 -22 -9 -13 -1 -30 -3 -38 -6 -8 -2 -37 -7 -65 -12 -27 -4 -62 -14 -77
-21 -17 -9 -29 -10 -33 -4 -3 6 -18 7 -33 4 -15 -3 -63 -8 -107 -10 -44 -2
-96 -7 -115 -9 -76 -11 -145 -6 -194 14 -16 6 -31 9 -33 7 -3 -3 -15 6 -28 19
-12 14 -25 22 -28 18 -4 -3 -7 -1 -7 5 0 7 -9 12 -19 12 -11 0 -26 6 -33 14
-19 19 -58 30 -58 17 0 -6 -14 -11 -31 -11 -16 0 -28 4 -25 8 9 16 -30 52 -60
55 -18 2 -39 11 -49 20 -9 9 -25 17 -35 17 -10 0 -25 6 -32 14 -8 7 -29 17
-46 21 -18 3 -30 11 -26 16 3 5 -2 10 -10 10 -26 2 -30 4 -58 23 -15 10 -32
15 -38 11 -5 -3 -25 5 -42 18 -18 14 -45 25 -60 25 -14 0 -39 9 -55 20 -15 11
-44 23 -63 27 -19 4 -42 13 -50 20 -8 7 -39 20 -67 30 -29 9 -53 20 -53 25 0
4 -8 7 -17 7 -10 0 -36 8 -58 17 -22 10 -47 19 -55 21 -17 2 -19 24 -9 73 5
21 3 32 -5 33 -7 0 -6 3 2 6 10 4 9 10 -4 30 -9 14 -11 23 -6 19 6 -3 13 -2
17 4 3 5 1 10 -6 10 -7 0 -8 4 -2 13 5 6 8 46 7 87 0 41 3 81 9 88 6 8 6 12
-1 12 -12 0 -11 98 1 117 5 7 4 21 -2 30 -6 11 -6 24 0 35 5 10 6 18 2 18 -5
0 -10 55 -11 123 -2 67 -5 149 -8 182 -6 53 -4 58 10 46 35 -29 126 -4 126 35
0 6 9 22 21 35 11 13 23 36 26 51 5 23 10 27 29 23 13 -3 36 -7 51 -10 14 -4
29 -1 33 4 3 6 24 19 45 30 41 20 70 15 88 -15 10 -18 93 -73 120 -80 13 -3
42 1 64 9 34 12 45 12 64 1 40 -22 96 -18 114 9 8 13 30 28 49 35 24 9 43 27
61 57 14 25 30 45 35 45 4 0 21 13 36 29 22 24 34 29 61 25 19 -2 33 1 33 7 0
5 4 8 9 4 6 -3 8 -13 7 -23z m-7601 -12 c3 -5 1 -10 -4 -10 -6 0 -11 5 -11 10
0 6 2 10 4 10 3 0 8 -4 11 -10z m5315 -405 c19 -1 41 -3 49 -4 7 0 11 -7 7
-16 -3 -8 -2 -15 2 -15 4 0 8 -33 10 -73 2 -39 8 -76 12 -81 6 -6 5 -15 -1
-23 -7 -8 -8 -13 -1 -13 5 0 12 -9 15 -20 3 -11 0 -20 -5 -20 -10 0 -9 -12 8
-125 3 -16 5 -39 5 -50 0 -10 4 -25 10 -31 7 -8 6 -14 -1 -19 -6 -3 -8 -11 -5
-16 4 -5 3 -15 -2 -21 -12 -21 -13 -41 0 -57 10 -12 9 -13 -3 -6 -13 8 -13 6
-2 -8 8 -9 12 -26 11 -39 -2 -13 -1 -27 3 -33 3 -5 5 -26 5 -45 0 -19 4 -45
11 -56 6 -12 9 -24 5 -27 -3 -4 0 -13 6 -21 9 -10 9 -16 1 -21 -8 -5 -8 -11
-1 -19 6 -7 8 -15 6 -18 -10 -9 -15 -51 -8 -62 4 -6 8 -29 10 -51 3 -47 11
-130 13 -130 1 0 3 -8 5 -18 2 -10 -1 -14 -8 -10 -7 4 -8 0 -2 -13 4 -10 8
-28 9 -39 0 -11 5 -23 10 -26 5 -4 10 -22 11 -40 2 -19 3 -39 4 -45 0 -5 13
-25 28 -43 15 -18 28 -39 29 -46 1 -8 9 -22 18 -31 9 -8 16 -20 16 -25 0 -5 7
-9 15 -9 9 0 27 -7 40 -16 14 -9 25 -14 25 -11 0 3 12 0 27 -8 15 -8 30 -12
35 -9 4 3 8 -2 8 -10 0 -12 5 -14 24 -7 17 7 30 4 52 -10 16 -10 37 -19 47
-19 9 0 17 -5 17 -12 0 -9 3 -9 12 0 9 9 17 7 36 -11 16 -15 37 -22 65 -23 88
-3 98 -4 93 -13 -7 -11 77 -34 117 -33 9 0 17 -4 17 -9 0 -6 4 -8 8 -5 5 3 19
-1 33 -8 13 -7 29 -14 34 -15 6 -2 19 -7 30 -11 74 -29 75 -30 76 -17 0 9 2 9
6 -1 4 -10 8 -10 19 -1 11 9 15 8 20 -5 3 -9 11 -13 16 -10 6 4 14 0 19 -7 4
-8 14 -14 21 -15 7 0 23 -2 36 -2 12 -1 22 -9 22 -17 0 -16 36 -39 49 -30 5 3
17 -2 26 -11 9 -10 27 -18 40 -18 12 -1 29 -7 36 -13 8 -6 21 -13 29 -15 8 -2
21 -9 28 -16 8 -7 18 -10 22 -7 5 3 14 -3 20 -14 8 -17 7 -23 -10 -33 -11 -7
-20 -17 -20 -23 0 -5 -12 -23 -28 -40 -15 -16 -40 -48 -57 -70 -47 -64 -106
-125 -121 -125 -7 0 -19 6 -26 13 -7 6 -26 13 -43 14 -54 5 -60 6 -72 19 -12
12 -132 31 -160 25 -7 -1 -13 2 -13 6 0 5 -22 8 -50 7 -27 0 -50 2 -50 6 0 13
-131 5 -139 -8 -7 -12 -13 -11 -37 1 -53 26 -321 0 -332 -33 -2 -5 -7 -8 -12
-5 -11 7 -60 -15 -60 -27 0 -4 -6 -8 -14 -8 -7 0 -25 -11 -40 -25 -15 -14 -32
-25 -39 -25 -13 0 -57 -48 -57 -62 0 -5 -4 -7 -8 -4 -8 5 -42 -28 -42 -40 0
-9 -52 -69 -57 -66 -5 4 -43 -38 -43 -48 0 -3 -8 -15 -18 -26 -38 -42 -82
-102 -82 -113 0 -6 -5 -11 -11 -11 -5 0 -8 -3 -6 -7 3 -5 -12 -26 -33 -47 -22
-22 -45 -53 -52 -70 -6 -16 -26 -44 -44 -60 -17 -17 -34 -38 -37 -46 -3 -9 -6
-5 -6 11 -1 14 -6 30 -13 37 -9 9 -9 12 0 12 6 0 9 6 6 13 -4 12 -9 49 -18
132 -2 22 -7 58 -9 80 -3 22 -9 67 -12 100 -4 33 -9 74 -12 90 -2 17 -7 53 -9
80 -3 28 -7 73 -9 100 -3 28 -9 75 -15 105 -11 65 -20 150 -22 203 -1 20 -4
37 -8 37 -3 0 -6 15 -7 33 0 31 -8 110 -19 192 -3 22 -6 58 -8 81 -1 22 -5 45
-8 50 -3 5 -5 26 -4 47 1 20 -1 37 -4 37 -3 0 -5 21 -5 48 1 26 -2 52 -6 57
-3 6 -6 17 -6 25 0 19 -12 136 -18 175 -3 17 -6 50 -8 75 -1 25 -5 50 -8 55
-3 6 -6 30 -5 55 1 25 -2 52 -6 62 -4 9 -10 47 -13 85 -3 37 -8 86 -11 108 -5
36 -10 78 -18 156 -1 14 -6 31 -10 37 -4 7 -2 12 4 12 7 0 8 6 1 18 -5 9 -10
42 -12 72 -2 30 -7 60 -12 67 -5 7 -10 54 -12 105 -2 72 1 97 12 110 9 10 20
15 24 12 5 -3 25 7 44 21 l34 27 34 -21 c34 -21 97 -35 97 -21 0 4 25 14 55
22 30 8 55 12 55 7 0 -16 55 -35 95 -34 50 2 75 13 99 43 12 15 24 21 35 16 9
-4 32 -8 51 -9z m135 -385 c3 -5 1 -10 -4 -10 -6 0 -11 5 -11 10 0 6 2 10 4
10 3 0 8 -4 11 -10z m-956 -3177 c-6 -7 -15 -10 -20 -7 -13 8 -3 21 15 21 12
0 13 -4 5 -14z"/>
<path d="M15808 18609 c-31 -18 -23 -70 18 -115 51 -56 183 -219 229 -284 22
-30 43 -56 47 -58 5 -2 8 -10 8 -17 0 -7 4 -15 8 -17 8 -3 169 -244 190 -285
11 -20 4 -27 -96 -97 l-107 -76 -20 24 c-11 13 -27 32 -35 43 -101 129 -211
243 -259 268 -79 40 -136 -42 -69 -102 99 -89 268 -280 268 -303 0 -8 -114
-90 -125 -90 -9 0 -91 -60 -107 -77 -9 -10 -15 -27 -13 -38 2 -11 4 -23 4 -26
2 -11 46 -26 61 -20 8 3 33 18 55 32 132 86 185 119 192 119 11 0 183 -277
183 -295 0 -5 -148 -55 -163 -55 -19 0 -47 -33 -47 -56 0 -10 7 -27 15 -38 12
-15 22 -17 60 -11 26 3 68 16 93 27 97 42 89 42 116 -10 40 -79 93 -214 141
-357 58 -171 63 -182 89 -189 33 -9 41 -7 65 15 16 15 21 29 17 50 -8 50 -101
326 -138 409 -42 94 -71 155 -74 161 -2 4 151 70 219 93 16 5 32 -23 108 -179
49 -102 89 -191 89 -198 0 -7 4 -17 9 -23 5 -5 31 -70 59 -144 45 -122 59
-177 77 -292 4 -29 11 -38 36 -47 34 -12 73 6 81 37 26 97 -74 394 -255 762
-34 69 -63 127 -65 130 -3 8 89 41 123 45 42 4 68 37 60 74 -4 17 -10 31 -13
32 -4 0 -18 3 -32 5 -13 2 -61 -8 -107 -22 -46 -15 -84 -26 -86 -23 -2 2 -36
62 -76 132 -40 71 -92 162 -116 203 l-44 74 30 20 c16 12 41 23 55 26 72 13
93 122 27 139 -21 5 -40 -3 -97 -43 l-70 -49 -111 166 c-158 238 -354 491
-419 542 -27 21 -61 24 -88 8z m682 -1079 c56 -98 102 -182 103 -186 2 -9
-199 -92 -223 -93 -8 -1 -27 23 -43 52 -15 28 -56 99 -92 156 -36 57 -65 106
-65 110 0 10 204 149 212 145 3 -2 52 -85 108 -184z"/>
<path d="M3352 18000 c-73 -30 -337 -328 -450 -507 -32 -51 -31 -51 -174 8
-53 21 -108 39 -123 39 -31 0 -75 -41 -75 -70 0 -26 34 -60 62 -60 11 0 62
-17 113 -37 l91 -37 -64 -110 c-35 -61 -78 -138 -94 -171 -17 -33 -32 -62 -34
-64 -7 -8 -141 42 -157 60 -38 41 -117 8 -117 -48 1 -50 36 -77 142 -108 32
-9 60 -20 63 -25 3 -5 -3 -27 -15 -49 -86 -169 -257 -643 -286 -791 -3 -14 -9
-41 -15 -60 -19 -68 -49 -266 -49 -326 0 -76 25 -110 73 -100 45 9 50 17 54
93 10 188 85 494 191 778 32 85 144 351 168 396 l14 27 62 -14 c170 -40 239
-45 267 -20 50 46 19 101 -64 112 -27 3 -70 10 -95 15 -25 5 -58 12 -75 15
-16 3 -31 7 -33 9 -2 1 17 38 41 81 114 204 138 244 148 244 11 0 195 -73 267
-106 29 -13 57 -24 63 -24 5 0 28 -18 49 -40 32 -33 45 -40 67 -35 56 10 71
78 30 127 -20 23 -132 88 -152 88 -3 0 -24 8 -48 19 -23 10 -67 28 -97 40 -47
19 -96 40 -108 47 -3 2 83 125 109 158 5 6 32 40 61 76 28 36 99 113 157 173
58 59 107 109 109 111 2 2 5 15 7 29 4 19 -2 31 -21 46 -30 23 -30 23 -62 11z"/>
<path d="M15583 16273 c-34 -7 -47 -28 -33 -54 7 -12 14 -36 17 -53 7 -45 13
-45 14 0 1 53 7 85 20 101 6 7 10 12 8 12 -2 -1 -14 -4 -26 -6z"/>
<path d="M15581 16028 c-1 -27 -2 -51 -3 -55 -1 -5 -6 -28 -10 -53 -5 -25 -12
-56 -14 -70 -12 -59 -49 -161 -86 -235 -49 -98 -71 -131 -116 -172 l-34 -31
27 -24 c23 -20 105 -139 105 -153 0 -3 23 -39 50 -80 28 -41 50 -79 50 -85 0
-5 3 -10 8 -10 4 0 18 -23 31 -52 l24 -52 32 109 c37 131 63 201 101 275 36
68 59 94 77 87 9 -3 14 1 13 10 0 9 6 17 14 18 8 1 30 16 47 33 l33 30 -38 24
c-146 97 -254 266 -296 463 -14 70 -14 70 -15 23z"/>
<path d="M5096 14142 c-3 -4 4 -9 15 -9 23 -2 25 3 4 10 -8 4 -16 3 -19 -1z"/>
<path d="M2726 13910 c-9 -22 -27 -92 -42 -155 -45 -203 -127 -392 -207 -478
-59 -64 -67 -78 -67 -122 1 -46 7 -56 74 -110 89 -71 187 -189 232 -277 25
-50 69 -173 79 -223 3 -16 8 -46 12 -65 11 -67 61 -121 113 -124 22 -1 66 26
89 55 20 26 21 51 5 184 -25 210 -2 286 118 387 25 21 62 90 53 99 -2 3 -6 17
-9 31 -2 15 -23 69 -46 120 -54 120 -96 225 -127 318 -33 101 -38 126 -48 233
-6 75 -24 111 -64 131 -34 17 -94 19 -85 3 3 -7 -3 -2 -14 11 -29 32 -48 27
-66 -18z"/>
<path d="M4495 12611 c-15 -16 -26 -32 -25 -35 1 -4 -4 -31 -10 -61 -13 -62
-53 -141 -81 -158 -29 -18 -24 -53 10 -67 53 -22 101 -95 101 -154 0 -13 7
-32 16 -41 30 -29 46 2 51 97 6 106 22 141 79 168 24 12 44 28 44 36 0 14 -38
54 -51 54 -15 0 -58 85 -65 128 -9 59 -33 70 -69 33z"/>
<path d="M15764 12202 c-5 -321 -77 -511 -234 -622 -54 -38 -118 -67 -168 -76
-45 -8 -72 -30 -72 -59 0 -36 30 -52 128 -68 247 -41 338 -162 421 -558 13
-60 30 -84 71 -94 18 -4 34 0 52 15 l27 21 -5 122 c-11 245 42 355 238 494 87
61 85 59 92 98 8 43 -13 67 -112 132 -167 109 -249 220 -272 368 -18 117 -32
145 -75 149 -5 1 -23 27 -39 59 -33 66 -51 73 -52 19z m356 -716 c0 -2 -7 -9
-15 -16 -13 -11 -14 -10 -9 4 5 14 24 23 24 12z m-330 -164 c0 -23 -1 -23 -27
8 -21 26 -24 33 -12 41 18 11 39 -15 39 -49z"/>
<path d="M3846 11742 c-3 -5 -8 -33 -11 -63 -9 -84 -15 -111 -38 -151 l-21
-38 21 -22 c31 -34 50 -78 58 -131 9 -57 21 -51 29 13 9 69 23 109 52 147 l26
35 -30 31 c-25 26 -59 94 -62 122 0 3 0 19 0 35 0 28 -13 40 -24 22z"/>
<path d="M4839 11668 c-1 -2 -3 -19 -4 -38 -1 -19 -5 -75 -9 -123 -3 -48 -13
-104 -21 -124 -8 -20 -14 -37 -13 -38 76 -50 112 -96 123 -157 7 -39 34 -73
36 -47 1 8 0 19 -1 24 -1 6 -2 35 -2 65 1 62 19 113 57 159 l27 31 -24 9 c-62
24 -138 126 -138 188 0 28 -10 53 -21 53 -5 0 -10 -1 -10 -2z m119 -308 c-7
-10 -14 -17 -17 -15 -4 4 18 35 25 35 2 0 -1 -9 -8 -20z"/>
<path d="M5930 11140 c0 -5 5 -10 11 -10 5 0 7 5 4 10 -3 6 -8 10 -11 10 -2 0
-4 -4 -4 -10z"/>
<path d="M5531 9567 c-8 -10 -7 -14 4 -14 8 0 12 4 9 8 -2 4 2 10 8 12 8 4 9
6 2 6 -6 1 -17 -5 -23 -12z"/>
<path d="M5357 9299 c7 -7 15 -10 18 -7 3 3 -2 9 -12 12 -14 6 -15 5 -6 -5z"/>
<path d="M7137 8531 c-18 -31 -57 -162 -57 -193 0 -7 -7 -2 -16 10 -18 26 -34
29 -34 6 0 -8 4 -13 8 -10 10 6 -13 -203 -29 -259 -23 -82 -71 -156 -129 -198
-30 -22 -58 -45 -61 -50 -17 -24 16 -97 43 -97 17 0 103 -43 138 -69 77 -56
90 -78 91 -153 1 -37 2 -71 4 -75 1 -5 5 -25 9 -45 9 -42 49 -88 78 -88 10 0
30 11 44 25 23 24 25 31 23 113 -1 48 -6 98 -11 111 -21 56 74 137 243 207
103 43 134 73 115 114 -12 28 -35 49 -53 50 -36 1 -128 47 -170 85 -75 67 -99
127 -107 265 -3 63 -11 133 -17 155 -13 47 -46 115 -57 116 -4 0 -14 2 -23 4
-9 1 -23 -9 -32 -24z m186 -659 l29 -21 -39 -18 c-21 -10 -42 -22 -46 -28 -5
-5 -6 5 -3 24 3 18 6 45 6 58 0 19 3 23 13 16 6 -5 25 -19 40 -31z m-303 -52
c0 -5 -5 -10 -11 -10 -5 0 -7 5 -4 10 3 6 8 10 11 10 2 0 4 -4 4 -10z"/>
<path d="M15002 8199 c-12 -5 -22 -5 -22 -1 -2 24 -32 -59 -45 -120 -25 -121
-77 -271 -103 -298 -13 -14 -31 -41 -39 -60 -60 -142 -134 -262 -204 -330 -83
-81 -83 -130 0 -194 111 -86 147 -143 181 -291 20 -89 26 -124 35 -235 12
-152 25 -175 103 -175 37 0 48 5 67 29 13 17 27 41 30 55 12 46 81 186 129
260 68 103 126 173 236 283 53 53 97 105 98 115 3 58 -9 83 -63 123 -73 54
-95 77 -148 158 -101 151 -146 307 -152 527 -3 121 -9 140 -49 152 -18 6 -42
6 -54 2z m-12 -1239 c-12 -17 -24 -29 -27 -26 -3 3 5 19 17 36 12 17 24 29 27
26 3 -3 -5 -19 -17 -36z"/>
<path d="M8350 7529 c0 -5 5 -7 10 -4 6 3 10 8 10 11 0 2 -4 4 -10 4 -5 0 -10
-5 -10 -11z"/>
<path d="M3910 5947 c0 -4 -4 -5 -10 -2 -5 3 -10 3 -10 -2 0 -4 -13 -15 -28
-24 -21 -12 -30 -28 -40 -70 -71 -293 -129 -457 -203 -578 -54 -88 -103 -141
-159 -172 -20 -11 -45 -36 -55 -55 -20 -38 -22 -103 -3 -116 7 -4 9 -8 3 -8
-5 0 8 -16 28 -35 20 -19 41 -35 46 -35 17 0 115 -107 158 -172 78 -121 151
-328 168 -481 3 -27 9 -56 14 -65 19 -35 60 -64 93 -65 18 -1 36 -6 40 -11 3
-5 13 -2 22 7 9 9 24 18 35 22 35 11 51 71 56 210 5 168 10 203 52 350 30 105
79 217 124 283 18 26 34 63 36 82 2 19 5 36 7 38 2 2 -5 27 -16 55 -33 86 -97
273 -102 298 -3 13 -16 71 -29 129 -25 111 -46 215 -53 265 -7 45 -34 115 -45
115 -6 0 -8 4 -5 8 6 10 -60 36 -96 37 -16 0 -28 -3 -28 -8z m81 -892 c4 -6
-2 -32 -14 -58 -22 -47 -39 -63 -31 -29 2 9 6 46 8 82 6 82 6 81 18 45 6 -16
14 -35 19 -40z m-90 -232 c-5 -10 -13 -27 -16 -38 -7 -19 -7 -19 -16 3 -7 19
-5 27 13 42 27 21 33 19 19 -7z"/>
<path d="M7713 3648 c-4 -7 -8 -15 -8 -18 -12 -92 -49 -199 -74 -214 -16 -10
-14 -46 3 -46 17 0 64 -54 78 -89 5 -14 11 -44 13 -68 5 -60 14 -83 32 -83 14
0 15 10 10 68 -5 53 -3 75 12 107 17 39 81 105 101 105 22 0 8 25 -35 62 -30
26 -57 65 -81 114 -19 41 -37 74 -39 74 -2 0 -7 -6 -12 -12z m24 -110 c-3 -8
-6 -5 -6 6 -1 11 2 17 5 13 3 -3 4 -12 1 -19z m11 -233 c-3 -3 -9 2 -12 12 -6
14 -5 15 5 6 7 -7 10 -15 7 -18z"/>
</g>
</svg>
